<svg width="130" height="24" viewBox="0 0 130 24" fill="none" xmlns="http://www.w3.org/2000/svg">
<path d="M43.89 17.04C43.9967 17.04 44.09 17.0833 44.17 17.17L44.94 18C44.3533 18.68 43.64 19.21 42.8 19.59C41.9667 19.97 40.9567 20.16 39.77 20.16C38.7433 20.16 37.81 19.9833 36.97 19.63C36.13 19.27 35.4133 18.77 34.82 18.13C34.2267 17.4833 33.7667 16.71 33.44 15.81C33.1133 14.91 32.95 13.92 32.95 12.84C32.95 11.76 33.12 10.77 33.46 9.87C33.8 8.97 34.2767 8.19667 34.89 7.55C35.51 6.90333 36.25 6.40333 37.11 6.05C37.97 5.69 38.92 5.51 39.96 5.51C40.98 5.51 41.88 5.67333 42.66 6C43.44 6.32667 44.1267 6.77 44.72 7.33L44.08 8.22C44.04 8.28667 43.9867 8.34333 43.92 8.39C43.86 8.43 43.7767 8.45 43.67 8.45C43.55 8.45 43.4033 8.38667 43.23 8.26C43.0567 8.12667 42.83 7.98 42.55 7.82C42.27 7.66 41.92 7.51667 41.5 7.39C41.08 7.25667 40.5633 7.19 39.95 7.19C39.21 7.19 38.5333 7.32 37.92 7.58C37.3067 7.83333 36.7767 8.20333 36.33 8.69C35.89 9.17667 35.5467 9.77 35.3 10.47C35.0533 11.17 34.93 11.96 34.93 12.84C34.93 13.7333 35.0567 14.53 35.31 15.23C35.57 15.93 35.92 16.5233 36.36 17.01C36.8067 17.49 37.33 17.8567 37.93 18.11C38.5367 18.3633 39.19 18.49 39.89 18.49C40.3167 18.49 40.7 18.4667 41.04 18.42C41.3867 18.3667 41.7033 18.2867 41.99 18.18C42.2833 18.0733 42.5533 17.94 42.8 17.78C43.0533 17.6133 43.3033 17.4167 43.55 17.19C43.6633 17.09 43.7767 17.04 43.89 17.04ZM50.8441 9.71C51.5841 9.71 52.2507 9.83333 52.8441 10.08C53.4374 10.3267 53.9441 10.6767 54.3641 11.13C54.7841 11.5833 55.1041 12.1333 55.3241 12.78C55.5507 13.42 55.6641 14.1367 55.6641 14.93C55.6641 15.73 55.5507 16.45 55.3241 17.09C55.1041 17.73 54.7841 18.2767 54.3641 18.73C53.9441 19.1833 53.4374 19.5333 52.8441 19.78C52.2507 20.02 51.5841 20.14 50.8441 20.14C50.0974 20.14 49.4241 20.02 48.8241 19.78C48.2307 19.5333 47.7241 19.1833 47.3041 18.73C46.8841 18.2767 46.5607 17.73 46.3341 17.09C46.1141 16.45 46.0041 15.73 46.0041 14.93C46.0041 14.1367 46.1141 13.42 46.3341 12.78C46.5607 12.1333 46.8841 11.5833 47.3041 11.13C47.7241 10.6767 48.2307 10.3267 48.8241 10.08C49.4241 9.83333 50.0974 9.71 50.8441 9.71ZM50.8441 18.75C51.8441 18.75 52.5907 18.4167 53.0841 17.75C53.5774 17.0767 53.8241 16.14 53.8241 14.94C53.8241 13.7333 53.5774 12.7933 53.0841 12.12C52.5907 11.4467 51.8441 11.11 50.8441 11.11C50.3374 11.11 49.8941 11.1967 49.5141 11.37C49.1407 11.5433 48.8274 11.7933 48.5741 12.12C48.3274 12.4467 48.1407 12.85 48.0141 13.33C47.8941 13.8033 47.8341 14.34 47.8341 14.94C47.8341 16.14 48.0807 17.0767 48.5741 17.75C49.0741 18.4167 49.8307 18.75 50.8441 18.75ZM57.9217 20V9.87H58.9917C59.2451 9.87 59.4017 9.99333 59.4617 10.24L59.5917 11.28C59.9651 10.82 60.3851 10.4433 60.8517 10.15C61.3184 9.85667 61.8584 9.71 62.4717 9.71C63.1517 9.71 63.7017 9.9 64.1217 10.28C64.5484 10.66 64.8551 11.1733 65.0417 11.82C65.1884 11.4533 65.3751 11.1367 65.6017 10.87C65.8351 10.6033 66.0951 10.3833 66.3817 10.21C66.6684 10.0367 66.9717 9.91 67.2917 9.83C67.6184 9.75 67.9484 9.71 68.2817 9.71C68.8151 9.71 69.2884 9.79667 69.7017 9.97C70.1217 10.1367 70.4751 10.3833 70.7617 10.71C71.0551 11.0367 71.2784 11.44 71.4317 11.92C71.5851 12.3933 71.6617 12.9367 71.6617 13.55V20H69.8717V13.55C69.8717 12.7567 69.6984 12.1567 69.3517 11.75C69.0051 11.3367 68.5051 11.13 67.8517 11.13C67.5584 11.13 67.2784 11.1833 67.0117 11.29C66.7517 11.39 66.5217 11.54 66.3217 11.74C66.1217 11.94 65.9617 12.1933 65.8417 12.5C65.7284 12.8 65.6717 13.15 65.6717 13.55V20H63.8817V13.55C63.8817 12.7367 63.7184 12.13 63.3917 11.73C63.0651 11.33 62.5884 11.13 61.9617 11.13C61.5217 11.13 61.1151 11.25 60.7417 11.49C60.3684 11.7233 60.0251 12.0433 59.7117 12.45V20H57.9217ZM76.157 17.56C76.4837 18 76.8404 18.31 77.227 18.49C77.6137 18.67 78.047 18.76 78.527 18.76C79.4737 18.76 80.2004 18.4233 80.707 17.75C81.2137 17.0767 81.467 16.1167 81.467 14.87C81.467 14.21 81.407 13.6433 81.287 13.17C81.1737 12.6967 81.007 12.31 80.787 12.01C80.567 11.7033 80.297 11.48 79.977 11.34C79.657 11.2 79.2937 11.13 78.887 11.13C78.307 11.13 77.797 11.2633 77.357 11.53C76.9237 11.7967 76.5237 12.1733 76.157 12.66V17.56ZM76.067 11.44C76.4937 10.9133 76.987 10.49 77.547 10.17C78.107 9.85 78.747 9.69 79.467 9.69C80.0537 9.69 80.5837 9.80333 81.057 10.03C81.5304 10.25 81.9337 10.58 82.267 11.02C82.6004 11.4533 82.857 11.9933 83.037 12.64C83.217 13.2867 83.307 14.03 83.307 14.87C83.307 15.6167 83.207 16.3133 83.007 16.96C82.807 17.6 82.517 18.1567 82.137 18.63C81.7637 19.0967 81.3037 19.4667 80.757 19.74C80.217 20.0067 79.607 20.14 78.927 20.14C78.307 20.14 77.7737 20.0367 77.327 19.83C76.887 19.6167 76.497 19.3233 76.157 18.95V23.43H74.367V9.87H75.437C75.6904 9.87 75.847 9.99333 75.907 10.24L76.067 11.44ZM91.068 15.44C90.248 15.4667 89.548 15.5333 88.968 15.64C88.3946 15.74 87.9246 15.8733 87.558 16.04C87.198 16.2067 86.9346 16.4033 86.768 16.63C86.608 16.8567 86.528 17.11 86.528 17.39C86.528 17.6567 86.5713 17.8867 86.658 18.08C86.7446 18.2733 86.8613 18.4333 87.008 18.56C87.1613 18.68 87.338 18.77 87.538 18.83C87.7446 18.8833 87.9646 18.91 88.198 18.91C88.5113 18.91 88.798 18.88 89.058 18.82C89.318 18.7533 89.5613 18.66 89.788 18.54C90.0213 18.42 90.2413 18.2767 90.448 18.11C90.6613 17.9433 90.868 17.7533 91.068 17.54V15.44ZM85.318 11.3C85.878 10.76 86.4813 10.3567 87.128 10.09C87.7746 9.82333 88.4913 9.69 89.278 9.69C89.8446 9.69 90.348 9.78333 90.788 9.97C91.228 10.1567 91.598 10.4167 91.898 10.75C92.198 11.0833 92.4246 11.4867 92.578 11.96C92.7313 12.4333 92.808 12.9533 92.808 13.52V20H92.018C91.8446 20 91.7113 19.9733 91.618 19.92C91.5246 19.86 91.4513 19.7467 91.398 19.58L91.198 18.62C90.9313 18.8667 90.6713 19.0867 90.418 19.28C90.1646 19.4667 89.898 19.6267 89.618 19.76C89.338 19.8867 89.038 19.9833 88.718 20.05C88.4046 20.1233 88.0546 20.16 87.668 20.16C87.2746 20.16 86.9046 20.1067 86.558 20C86.2113 19.8867 85.908 19.72 85.648 19.5C85.3946 19.28 85.1913 19.0033 85.038 18.67C84.8913 18.33 84.818 17.93 84.818 17.47C84.818 17.07 84.928 16.6867 85.148 16.32C85.368 15.9467 85.7246 15.6167 86.218 15.33C86.7113 15.0433 87.3546 14.81 88.148 14.63C88.9413 14.4433 89.9146 14.3367 91.068 14.31V13.52C91.068 12.7333 90.898 12.14 90.558 11.74C90.218 11.3333 89.7213 11.13 89.068 11.13C88.628 11.13 88.258 11.1867 87.958 11.3C87.6646 11.4067 87.408 11.53 87.188 11.67C86.9746 11.8033 86.788 11.9267 86.628 12.04C86.4746 12.1467 86.3213 12.2 86.168 12.2C86.048 12.2 85.9446 12.17 85.858 12.11C85.7713 12.0433 85.698 11.9633 85.638 11.87L85.318 11.3ZM97.1994 11.34C97.4194 11.0933 97.6527 10.87 97.8994 10.67C98.146 10.47 98.406 10.3 98.6794 10.16C98.9594 10.0133 99.2527 9.90333 99.5594 9.83C99.8727 9.75 100.209 9.71 100.569 9.71C101.123 9.71 101.609 9.80333 102.029 9.99C102.456 10.17 102.809 10.43 103.089 10.77C103.376 11.1033 103.593 11.5067 103.739 11.98C103.886 12.4533 103.959 12.9767 103.959 13.55V20H102.169V13.55C102.169 12.7833 101.993 12.19 101.639 11.77C101.293 11.3433 100.763 11.13 100.049 11.13C99.5227 11.13 99.0294 11.2567 98.5694 11.51C98.116 11.7633 97.696 12.1067 97.3094 12.54V20H95.5194V9.87H96.5894C96.8427 9.87 96.9994 9.99333 97.0594 10.24L97.1994 11.34ZM108.552 9.87V20H106.772V9.87H108.552ZM108.932 6.69C108.932 6.86333 108.895 7.02667 108.822 7.18C108.755 7.32667 108.662 7.46 108.542 7.58C108.428 7.69333 108.292 7.78333 108.132 7.85C107.978 7.91667 107.815 7.95 107.642 7.95C107.468 7.95 107.305 7.91667 107.152 7.85C107.005 7.78333 106.875 7.69333 106.762 7.58C106.648 7.46 106.558 7.32667 106.492 7.18C106.425 7.02667 106.392 6.86333 106.392 6.69C106.392 6.51667 106.425 6.35333 106.492 6.2C106.558 6.04 106.648 5.90333 106.762 5.79C106.875 5.67 107.005 5.57667 107.152 5.51C107.305 5.44333 107.468 5.41 107.642 5.41C107.815 5.41 107.978 5.44333 108.132 5.51C108.292 5.57667 108.428 5.67 108.542 5.79C108.662 5.90333 108.755 6.04 108.822 6.2C108.895 6.35333 108.932 6.51667 108.932 6.69ZM118.256 13.83C118.256 13.4167 118.196 13.04 118.076 12.7C117.963 12.3533 117.793 12.0567 117.566 11.81C117.346 11.5567 117.076 11.3633 116.756 11.23C116.436 11.09 116.073 11.02 115.666 11.02C114.813 11.02 114.136 11.27 113.636 11.77C113.143 12.2633 112.836 12.95 112.716 13.83H118.256ZM119.696 18.58C119.476 18.8467 119.213 19.08 118.906 19.28C118.6 19.4733 118.27 19.6333 117.916 19.76C117.57 19.8867 117.21 19.98 116.836 20.04C116.463 20.1067 116.093 20.14 115.726 20.14C115.026 20.14 114.38 20.0233 113.786 19.79C113.2 19.55 112.69 19.2033 112.256 18.75C111.83 18.29 111.496 17.7233 111.256 17.05C111.016 16.3767 110.896 15.6033 110.896 14.73C110.896 14.0233 111.003 13.3633 111.216 12.75C111.436 12.1367 111.75 11.6067 112.156 11.16C112.563 10.7067 113.06 10.3533 113.646 10.1C114.233 9.84 114.893 9.71 115.626 9.71C116.233 9.71 116.793 9.81333 117.306 10.02C117.826 10.22 118.273 10.5133 118.646 10.9C119.026 11.28 119.323 11.7533 119.536 12.32C119.75 12.88 119.856 13.52 119.856 14.24C119.856 14.52 119.826 14.7067 119.766 14.8C119.706 14.8933 119.593 14.94 119.426 14.94H112.656C112.676 15.58 112.763 16.1367 112.916 16.61C113.076 17.0833 113.296 17.48 113.576 17.8C113.856 18.1133 114.19 18.35 114.576 18.51C114.963 18.6633 115.396 18.74 115.876 18.74C116.323 18.74 116.706 18.69 117.026 18.59C117.353 18.4833 117.633 18.37 117.866 18.25C118.1 18.13 118.293 18.02 118.446 17.92C118.606 17.8133 118.743 17.76 118.856 17.76C119.003 17.76 119.116 17.8167 119.196 17.93L119.696 18.58ZM127.943 11.54C127.863 11.6867 127.739 11.76 127.573 11.76C127.473 11.76 127.359 11.7233 127.233 11.65C127.106 11.5767 126.949 11.4967 126.763 11.41C126.583 11.3167 126.366 11.2333 126.113 11.16C125.859 11.08 125.559 11.04 125.213 11.04C124.913 11.04 124.643 11.08 124.403 11.16C124.163 11.2333 123.956 11.3367 123.783 11.47C123.616 11.6033 123.486 11.76 123.393 11.94C123.306 12.1133 123.263 12.3033 123.263 12.51C123.263 12.77 123.336 12.9867 123.483 13.16C123.636 13.3333 123.836 13.4833 124.083 13.61C124.329 13.7367 124.609 13.85 124.923 13.95C125.236 14.0433 125.556 14.1467 125.883 14.26C126.216 14.3667 126.539 14.4867 126.853 14.62C127.166 14.7533 127.446 14.92 127.693 15.12C127.939 15.32 128.136 15.5667 128.283 15.86C128.436 16.1467 128.513 16.4933 128.513 16.9C128.513 17.3667 128.429 17.8 128.263 18.2C128.096 18.5933 127.849 18.9367 127.523 19.23C127.196 19.5167 126.796 19.7433 126.323 19.91C125.849 20.0767 125.303 20.16 124.683 20.16C123.976 20.16 123.336 20.0467 122.763 19.82C122.189 19.5867 121.703 19.29 121.303 18.93L121.723 18.25C121.776 18.1633 121.839 18.0967 121.913 18.05C121.986 18.0033 122.079 17.98 122.193 17.98C122.313 17.98 122.439 18.0267 122.573 18.12C122.706 18.2133 122.866 18.3167 123.053 18.43C123.246 18.5433 123.479 18.6467 123.753 18.74C124.026 18.8333 124.366 18.88 124.773 18.88C125.119 18.88 125.423 18.8367 125.683 18.75C125.943 18.6567 126.159 18.5333 126.333 18.38C126.506 18.2267 126.633 18.05 126.713 17.85C126.799 17.65 126.843 17.4367 126.843 17.21C126.843 16.93 126.766 16.7 126.613 16.52C126.466 16.3333 126.269 16.1767 126.023 16.05C125.776 15.9167 125.493 15.8033 125.173 15.71C124.859 15.61 124.536 15.5067 124.203 15.4C123.876 15.2933 123.553 15.1733 123.233 15.04C122.919 14.9 122.639 14.7267 122.393 14.52C122.146 14.3133 121.946 14.06 121.793 13.76C121.646 13.4533 121.573 13.0833 121.573 12.65C121.573 12.2633 121.653 11.8933 121.813 11.54C121.973 11.18 122.206 10.8667 122.513 10.6C122.819 10.3267 123.196 10.11 123.643 9.95C124.089 9.79 124.599 9.71 125.173 9.71C125.839 9.71 126.436 9.81667 126.963 10.03C127.496 10.2367 127.956 10.5233 128.343 10.89L127.943 11.54Z" fill="#344054"/>
<path d="M11.502 1.5V23.505H12.502V18.504H15.503V23.505H21.505V1.5H11.502ZM17.504 2.5V4.5H15.504V2.5H17.504ZM17.504 7.501H15.504V5.501H17.504V7.501ZM17.504 10.502H15.504V8.502H17.504V10.502ZM17.504 13.502H15.504V11.502H17.504V13.502ZM17.504 16.503H15.504V14.503H17.504V16.503ZM12.502 2.5H14.502V4.5H12.502V2.5ZM12.502 5.5H14.502V7.501H12.502V5.5ZM12.502 8.502H14.502V10.502H12.502V8.502ZM12.502 11.502H14.502V13.502H12.502V11.502ZM12.502 14.503H14.502V16.503H12.502V14.503ZM20.504 21.505H16.504V18.504H20.504V21.505ZM20.504 16.503H18.504V14.503H20.504V16.503ZM20.504 13.503H18.504V11.503H20.504V13.503ZM20.504 10.502H18.504V8.502H20.504V10.502ZM20.504 7.502H18.504V5.5H20.504V7.502ZM20.504 4.501H18.504V2.501H20.504V4.501ZM1.5 8.501V23.505H4.5V19.504H7.501V23.504H10.502V8.502L1.5 8.501ZM2.5 9.501H5.5V11.502H2.5V9.501ZM2.5 12.502H5.5V14.502H2.5V12.502ZM2.5 17.503V15.503H5.5V17.503H2.5ZM9.502 17.503H6.502V15.503H9.502V17.503ZM9.502 14.503H6.502V12.503H9.502V14.503ZM9.502 11.503H6.502V9.501H9.502V11.503Z" fill="#344054"/>
</svg>
