<svg width="130" height="24" viewBox="0 0 130 24" fill="none" xmlns="http://www.w3.org/2000/svg">
<path d="M43.89 17.04C43.9967 17.04 44.09 17.0833 44.17 17.17L44.94 18C44.3533 18.68 43.64 19.21 42.8 19.59C41.9667 19.97 40.9567 20.16 39.77 20.16C38.7433 20.16 37.81 19.9833 36.97 19.63C36.13 19.27 35.4133 18.77 34.82 18.13C34.2267 17.4833 33.7667 16.71 33.44 15.81C33.1133 14.91 32.95 13.92 32.95 12.84C32.95 11.76 33.12 10.77 33.46 9.87C33.8 8.97 34.2767 8.19667 34.89 7.55C35.51 6.90333 36.25 6.40333 37.11 6.05C37.97 5.69 38.92 5.51 39.96 5.51C40.98 5.51 41.88 5.67333 42.66 6C43.44 6.32667 44.1267 6.77 44.72 7.33L44.08 8.22C44.04 8.28667 43.9867 8.34333 43.92 8.39C43.86 8.43 43.7767 8.45 43.67 8.45C43.55 8.45 43.4033 8.38667 43.23 8.26C43.0567 8.12667 42.83 7.98 42.55 7.82C42.27 7.66 41.92 7.51667 41.5 7.39C41.08 7.25667 40.5633 7.19 39.95 7.19C39.21 7.19 38.5333 7.32 37.92 7.58C37.3067 7.83333 36.7767 8.20333 36.33 8.69C35.89 9.17667 35.5467 9.77 35.3 10.47C35.0533 11.17 34.93 11.96 34.93 12.84C34.93 13.7333 35.0567 14.53 35.31 15.23C35.57 15.93 35.92 16.5233 36.36 17.01C36.8067 17.49 37.33 17.8567 37.93 18.11C38.5367 18.3633 39.19 18.49 39.89 18.49C40.3167 18.49 40.7 18.4667 41.04 18.42C41.3867 18.3667 41.7033 18.2867 41.99 18.18C42.2833 18.0733 42.5533 17.94 42.8 17.78C43.0533 17.6133 43.3033 17.4167 43.55 17.19C43.6633 17.09 43.7767 17.04 43.89 17.04ZM48.4008 11.9C48.7208 11.2067 49.1141 10.6667 49.5808 10.28C50.0474 9.88667 50.6174 9.69 51.2908 9.69C51.5041 9.69 51.7074 9.71333 51.9008 9.76C52.1008 9.80667 52.2774 9.88 52.4308 9.98L52.3008 11.31C52.2608 11.4767 52.1608 11.56 52.0008 11.56C51.9074 11.56 51.7708 11.54 51.5908 11.5C51.4108 11.46 51.2074 11.44 50.9808 11.44C50.6608 11.44 50.3741 11.4867 50.1208 11.58C49.8741 11.6733 49.6508 11.8133 49.4508 12C49.2574 12.18 49.0808 12.4067 48.9208 12.68C48.7674 12.9467 48.6274 13.2533 48.5008 13.6V20H46.7108V9.87H47.7308C47.9241 9.87 48.0574 9.90667 48.1308 9.98C48.2041 10.0533 48.2541 10.18 48.2808 10.36L48.4008 11.9ZM60.3658 13.83C60.3658 13.4167 60.3058 13.04 60.1858 12.7C60.0724 12.3533 59.9024 12.0567 59.6758 11.81C59.4558 11.5567 59.1858 11.3633 58.8658 11.23C58.5458 11.09 58.1824 11.02 57.7758 11.02C56.9224 11.02 56.2458 11.27 55.7458 11.77C55.2524 12.2633 54.9458 12.95 54.8258 13.83H60.3658ZM61.8058 18.58C61.5858 18.8467 61.3224 19.08 61.0158 19.28C60.7091 19.4733 60.3791 19.6333 60.0258 19.76C59.6791 19.8867 59.3191 19.98 58.9458 20.04C58.5724 20.1067 58.2024 20.14 57.8358 20.14C57.1358 20.14 56.4891 20.0233 55.8958 19.79C55.3091 19.55 54.7991 19.2033 54.3658 18.75C53.9391 18.29 53.6058 17.7233 53.3658 17.05C53.1258 16.3767 53.0058 15.6033 53.0058 14.73C53.0058 14.0233 53.1124 13.3633 53.3258 12.75C53.5458 12.1367 53.8591 11.6067 54.2658 11.16C54.6724 10.7067 55.1691 10.3533 55.7558 10.1C56.3424 9.84 57.0024 9.71 57.7358 9.71C58.3424 9.71 58.9024 9.81333 59.4158 10.02C59.9358 10.22 60.3824 10.5133 60.7558 10.9C61.1358 11.28 61.4324 11.7533 61.6458 12.32C61.8591 12.88 61.9658 13.52 61.9658 14.24C61.9658 14.52 61.9358 14.7067 61.8758 14.8C61.8158 14.8933 61.7024 14.94 61.5358 14.94H54.7658C54.7858 15.58 54.8724 16.1367 55.0258 16.61C55.1858 17.0833 55.4058 17.48 55.6858 17.8C55.9658 18.1133 56.2991 18.35 56.6858 18.51C57.0724 18.6633 57.5058 18.74 57.9858 18.74C58.4324 18.74 58.8158 18.69 59.1358 18.59C59.4624 18.4833 59.7424 18.37 59.9758 18.25C60.2091 18.13 60.4024 18.02 60.5558 17.92C60.7158 17.8133 60.8524 17.76 60.9658 17.76C61.1124 17.76 61.2258 17.8167 61.3058 17.93L61.8058 18.58ZM69.6422 15.44C68.8222 15.4667 68.1222 15.5333 67.5422 15.64C66.9689 15.74 66.4989 15.8733 66.1322 16.04C65.7722 16.2067 65.5089 16.4033 65.3422 16.63C65.1822 16.8567 65.1022 17.11 65.1022 17.39C65.1022 17.6567 65.1455 17.8867 65.2322 18.08C65.3189 18.2733 65.4355 18.4333 65.5822 18.56C65.7355 18.68 65.9122 18.77 66.1122 18.83C66.3189 18.8833 66.5389 18.91 66.7722 18.91C67.0855 18.91 67.3722 18.88 67.6322 18.82C67.8922 18.7533 68.1355 18.66 68.3622 18.54C68.5955 18.42 68.8155 18.2767 69.0222 18.11C69.2355 17.9433 69.4422 17.7533 69.6422 17.54V15.44ZM63.8922 11.3C64.4522 10.76 65.0555 10.3567 65.7022 10.09C66.3489 9.82333 67.0655 9.69 67.8522 9.69C68.4189 9.69 68.9222 9.78333 69.3622 9.97C69.8022 10.1567 70.1722 10.4167 70.4722 10.75C70.7722 11.0833 70.9989 11.4867 71.1522 11.96C71.3055 12.4333 71.3822 12.9533 71.3822 13.52V20H70.5922C70.4189 20 70.2855 19.9733 70.1922 19.92C70.0989 19.86 70.0255 19.7467 69.9722 19.58L69.7722 18.62C69.5055 18.8667 69.2455 19.0867 68.9922 19.28C68.7389 19.4667 68.4722 19.6267 68.1922 19.76C67.9122 19.8867 67.6122 19.9833 67.2922 20.05C66.9789 20.1233 66.6289 20.16 66.2422 20.16C65.8489 20.16 65.4789 20.1067 65.1322 20C64.7855 19.8867 64.4822 19.72 64.2222 19.5C63.9689 19.28 63.7655 19.0033 63.6122 18.67C63.4655 18.33 63.3922 17.93 63.3922 17.47C63.3922 17.07 63.5022 16.6867 63.7222 16.32C63.9422 15.9467 64.2989 15.6167 64.7922 15.33C65.2855 15.0433 65.9289 14.81 66.7222 14.63C67.5155 14.4433 68.4889 14.3367 69.6422 14.31V13.52C69.6422 12.7333 69.4722 12.14 69.1322 11.74C68.7922 11.3333 68.2955 11.13 67.6422 11.13C67.2022 11.13 66.8322 11.1867 66.5322 11.3C66.2389 11.4067 65.9822 11.53 65.7622 11.67C65.5489 11.8033 65.3622 11.9267 65.2022 12.04C65.0489 12.1467 64.8955 12.2 64.7422 12.2C64.6222 12.2 64.5189 12.17 64.4322 12.11C64.3455 12.0433 64.2722 11.9633 64.2122 11.87L63.8922 11.3ZM77.0669 20.16C76.2669 20.16 75.6502 19.9367 75.2169 19.49C74.7902 19.0433 74.5769 18.4 74.5769 17.56V11.36H73.3569C73.2502 11.36 73.1602 11.33 73.0869 11.27C73.0135 11.2033 72.9769 11.1033 72.9769 10.97V10.26L74.6369 10.05L75.0469 6.92C75.0669 6.82 75.1102 6.74 75.1769 6.68C75.2502 6.61333 75.3435 6.58 75.4569 6.58H76.3569V10.07H79.2869V11.36H76.3569V17.44C76.3569 17.8667 76.4602 18.1833 76.6669 18.39C76.8735 18.5967 77.1402 18.7 77.4669 18.7C77.6535 18.7 77.8135 18.6767 77.9469 18.63C78.0869 18.5767 78.2069 18.52 78.3069 18.46C78.4069 18.4 78.4902 18.3467 78.5569 18.3C78.6302 18.2467 78.6935 18.22 78.7469 18.22C78.8402 18.22 78.9235 18.2767 78.9969 18.39L79.5169 19.24C79.2102 19.5267 78.8402 19.7533 78.4069 19.92C77.9735 20.08 77.5269 20.16 77.0669 20.16ZM87.8463 13.83C87.8463 13.4167 87.7863 13.04 87.6663 12.7C87.5529 12.3533 87.3829 12.0567 87.1563 11.81C86.9363 11.5567 86.6663 11.3633 86.3463 11.23C86.0263 11.09 85.6629 11.02 85.2563 11.02C84.4029 11.02 83.7263 11.27 83.2263 11.77C82.7329 12.2633 82.4263 12.95 82.3063 13.83H87.8463ZM89.2863 18.58C89.0663 18.8467 88.8029 19.08 88.4963 19.28C88.1896 19.4733 87.8596 19.6333 87.5063 19.76C87.1596 19.8867 86.7996 19.98 86.4263 20.04C86.0529 20.1067 85.6829 20.14 85.3163 20.14C84.6163 20.14 83.9696 20.0233 83.3763 19.79C82.7896 19.55 82.2796 19.2033 81.8463 18.75C81.4196 18.29 81.0863 17.7233 80.8463 17.05C80.6063 16.3767 80.4863 15.6033 80.4863 14.73C80.4863 14.0233 80.5929 13.3633 80.8063 12.75C81.0263 12.1367 81.3396 11.6067 81.7463 11.16C82.1529 10.7067 82.6496 10.3533 83.2363 10.1C83.8229 9.84 84.4829 9.71 85.2163 9.71C85.8229 9.71 86.3829 9.81333 86.8963 10.02C87.4163 10.22 87.8629 10.5133 88.2363 10.9C88.6163 11.28 88.9129 11.7533 89.1263 12.32C89.3396 12.88 89.4463 13.52 89.4463 14.24C89.4463 14.52 89.4163 14.7067 89.3563 14.8C89.2963 14.8933 89.1829 14.94 89.0163 14.94H82.2463C82.2663 15.58 82.3529 16.1367 82.5063 16.61C82.6663 17.0833 82.8863 17.48 83.1663 17.8C83.4463 18.1133 83.7796 18.35 84.1663 18.51C84.5529 18.6633 84.9863 18.74 85.4663 18.74C85.9129 18.74 86.2963 18.69 86.6163 18.59C86.9429 18.4833 87.2229 18.37 87.4563 18.25C87.6896 18.13 87.8829 18.02 88.0363 17.92C88.1963 17.8133 88.3329 17.76 88.4463 17.76C88.5929 17.76 88.7063 17.8167 88.7863 17.93L89.2863 18.58ZM98.2327 12.28C97.8993 11.8333 97.5393 11.5233 97.1527 11.35C96.766 11.17 96.3327 11.08 95.8527 11.08C94.9127 11.08 94.1893 11.4167 93.6827 12.09C93.176 12.7633 92.9227 13.7233 92.9227 14.97C92.9227 15.63 92.9793 16.1967 93.0927 16.67C93.206 17.1367 93.3727 17.5233 93.5927 17.83C93.8127 18.13 94.0827 18.35 94.4027 18.49C94.7227 18.63 95.086 18.7 95.4927 18.7C96.0793 18.7 96.5893 18.5667 97.0227 18.3C97.4627 18.0333 97.866 17.6567 98.2327 17.17V12.28ZM100.013 5.27V20H98.9527C98.6993 20 98.5393 19.8767 98.4727 19.63L98.3127 18.4C97.8793 18.92 97.386 19.34 96.8327 19.66C96.2793 19.98 95.6393 20.14 94.9127 20.14C94.3327 20.14 93.806 20.03 93.3327 19.81C92.8593 19.5833 92.456 19.2533 92.1227 18.82C91.7893 18.3867 91.5327 17.8467 91.3527 17.2C91.1727 16.5533 91.0827 15.81 91.0827 14.97C91.0827 14.2233 91.1827 13.53 91.3827 12.89C91.5827 12.2433 91.8693 11.6833 92.2427 11.21C92.616 10.7367 93.0727 10.3667 93.6127 10.1C94.1593 9.82667 94.7727 9.69 95.4527 9.69C96.0727 9.69 96.6027 9.79667 97.0427 10.01C97.4893 10.2167 97.886 10.5067 98.2327 10.88V5.27H100.013ZM112.211 9.71C112.951 9.71 113.618 9.83333 114.211 10.08C114.805 10.3267 115.311 10.6767 115.731 11.13C116.151 11.5833 116.471 12.1333 116.691 12.78C116.918 13.42 117.031 14.1367 117.031 14.93C117.031 15.73 116.918 16.45 116.691 17.09C116.471 17.73 116.151 18.2767 115.731 18.73C115.311 19.1833 114.805 19.5333 114.211 19.78C113.618 20.02 112.951 20.14 112.211 20.14C111.465 20.14 110.791 20.02 110.191 19.78C109.598 19.5333 109.091 19.1833 108.671 18.73C108.251 18.2767 107.928 17.73 107.701 17.09C107.481 16.45 107.371 15.73 107.371 14.93C107.371 14.1367 107.481 13.42 107.701 12.78C107.928 12.1333 108.251 11.5833 108.671 11.13C109.091 10.6767 109.598 10.3267 110.191 10.08C110.791 9.83333 111.465 9.71 112.211 9.71ZM112.211 18.75C113.211 18.75 113.958 18.4167 114.451 17.75C114.945 17.0767 115.191 16.14 115.191 14.94C115.191 13.7333 114.945 12.7933 114.451 12.12C113.958 11.4467 113.211 11.11 112.211 11.11C111.705 11.11 111.261 11.1967 110.881 11.37C110.508 11.5433 110.195 11.7933 109.941 12.12C109.695 12.4467 109.508 12.85 109.381 13.33C109.261 13.8033 109.201 14.34 109.201 14.94C109.201 16.14 109.448 17.0767 109.941 17.75C110.441 18.4167 111.198 18.75 112.211 18.75ZM120.969 11.34C121.189 11.0933 121.422 10.87 121.669 10.67C121.916 10.47 122.176 10.3 122.449 10.16C122.729 10.0133 123.022 9.90333 123.329 9.83C123.642 9.75 123.979 9.71 124.339 9.71C124.892 9.71 125.379 9.80333 125.799 9.99C126.226 10.17 126.579 10.43 126.859 10.77C127.146 11.1033 127.362 11.5067 127.509 11.98C127.656 12.4533 127.729 12.9767 127.729 13.55V20H125.939V13.55C125.939 12.7833 125.762 12.19 125.409 11.77C125.062 11.3433 124.532 11.13 123.819 11.13C123.292 11.13 122.799 11.2567 122.339 11.51C121.886 11.7633 121.466 12.1067 121.079 12.54V20H119.289V9.87H120.359C120.612 9.87 120.769 9.99333 120.829 10.24L120.969 11.34Z" fill="#344054"/>
<path d="M20 8H4V6H20V8ZM18 2H6V4H18V2ZM10.312 21.1L7.012 17.8L8.412 16.4L10.312 18.3L15.612 13L17.012 14.4L10.312 21.1Z" fill="#344054"/>
<path d="M22 10H2C1.46957 10 0.960859 10.2107 0.585786 10.5858C0.210714 10.9609 0 11.4696 0 12L0 22C0 22.5304 0.210714 23.0391 0.585786 23.4142C0.960859 23.7893 1.46957 24 2 24H22C22.5304 24 23.0391 23.7893 23.4142 23.4142C23.7893 23.0391 24 22.5304 24 22V12C24 11.4696 23.7893 10.9609 23.4142 10.5858C23.0391 10.2107 22.5304 10 22 10ZM22 22H2V12H22V22Z" fill="#344054"/>
</svg>
