<svg width="80" height="24" viewBox="0 0 80 24" fill="none" xmlns="http://www.w3.org/2000/svg">
<path d="M42.67 18.42L42.66 20H33.83V5.67H42.66V7.25H35.77V12.01H41.35V13.53H35.77V18.42H42.67ZM44.6795 20V9.87H45.7495C46.0029 9.87 46.1595 9.99333 46.2195 10.24L46.3495 11.28C46.7229 10.82 47.1429 10.4433 47.6095 10.15C48.0762 9.85667 48.6162 9.71 49.2295 9.71C49.9095 9.71 50.4595 9.9 50.8795 10.28C51.3062 10.66 51.6129 11.1733 51.7995 11.82C51.9462 11.4533 52.1329 11.1367 52.3595 10.87C52.5929 10.6033 52.8529 10.3833 53.1395 10.21C53.4262 10.0367 53.7295 9.91 54.0495 9.83C54.3762 9.75 54.7062 9.71 55.0395 9.71C55.5729 9.71 56.0462 9.79667 56.4595 9.97C56.8795 10.1367 57.2329 10.3833 57.5195 10.71C57.8129 11.0367 58.0362 11.44 58.1895 11.92C58.3429 12.3933 58.4195 12.9367 58.4195 13.55V20H56.6295V13.55C56.6295 12.7567 56.4562 12.1567 56.1095 11.75C55.7629 11.3367 55.2629 11.13 54.6095 11.13C54.3162 11.13 54.0362 11.1833 53.7695 11.29C53.5095 11.39 53.2795 11.54 53.0795 11.74C52.8795 11.94 52.7195 12.1933 52.5995 12.5C52.4862 12.8 52.4295 13.15 52.4295 13.55V20H50.6395V13.55C50.6395 12.7367 50.4762 12.13 50.1495 11.73C49.8229 11.33 49.3462 11.13 48.7195 11.13C48.2795 11.13 47.8729 11.25 47.4995 11.49C47.1262 11.7233 46.7829 12.0433 46.4695 12.45V20H44.6795ZM66.6148 15.44C65.7948 15.4667 65.0948 15.5333 64.5148 15.64C63.9415 15.74 63.4715 15.8733 63.1048 16.04C62.7448 16.2067 62.4815 16.4033 62.3148 16.63C62.1548 16.8567 62.0748 17.11 62.0748 17.39C62.0748 17.6567 62.1182 17.8867 62.2048 18.08C62.2915 18.2733 62.4082 18.4333 62.5548 18.56C62.7082 18.68 62.8848 18.77 63.0848 18.83C63.2915 18.8833 63.5115 18.91 63.7448 18.91C64.0582 18.91 64.3448 18.88 64.6048 18.82C64.8648 18.7533 65.1082 18.66 65.3348 18.54C65.5682 18.42 65.7882 18.2767 65.9948 18.11C66.2082 17.9433 66.4148 17.7533 66.6148 17.54V15.44ZM60.8648 11.3C61.4248 10.76 62.0282 10.3567 62.6748 10.09C63.3215 9.82333 64.0382 9.69 64.8248 9.69C65.3915 9.69 65.8948 9.78333 66.3348 9.97C66.7748 10.1567 67.1448 10.4167 67.4448 10.75C67.7448 11.0833 67.9715 11.4867 68.1248 11.96C68.2782 12.4333 68.3548 12.9533 68.3548 13.52V20H67.5648C67.3915 20 67.2582 19.9733 67.1648 19.92C67.0715 19.86 66.9982 19.7467 66.9448 19.58L66.7448 18.62C66.4782 18.8667 66.2182 19.0867 65.9648 19.28C65.7115 19.4667 65.4448 19.6267 65.1648 19.76C64.8848 19.8867 64.5848 19.9833 64.2648 20.05C63.9515 20.1233 63.6015 20.16 63.2148 20.16C62.8215 20.16 62.4515 20.1067 62.1048 20C61.7582 19.8867 61.4548 19.72 61.1948 19.5C60.9415 19.28 60.7382 19.0033 60.5848 18.67C60.4382 18.33 60.3648 17.93 60.3648 17.47C60.3648 17.07 60.4748 16.6867 60.6948 16.32C60.9148 15.9467 61.2715 15.6167 61.7648 15.33C62.2582 15.0433 62.9015 14.81 63.6948 14.63C64.4882 14.4433 65.4615 14.3367 66.6148 14.31V13.52C66.6148 12.7333 66.4448 12.14 66.1048 11.74C65.7648 11.3333 65.2682 11.13 64.6148 11.13C64.1748 11.13 63.8048 11.1867 63.5048 11.3C63.2115 11.4067 62.9548 11.53 62.7348 11.67C62.5215 11.8033 62.3348 11.9267 62.1748 12.04C62.0215 12.1467 61.8682 12.2 61.7148 12.2C61.5948 12.2 61.4915 12.17 61.4048 12.11C61.3182 12.0433 61.2448 11.9633 61.1848 11.87L60.8648 11.3ZM72.9463 9.87V20H71.1663V9.87H72.9463ZM73.3263 6.69C73.3263 6.86333 73.2896 7.02667 73.2163 7.18C73.1496 7.32667 73.0563 7.46 72.9363 7.58C72.8229 7.69333 72.6863 7.78333 72.5263 7.85C72.3729 7.91667 72.2096 7.95 72.0363 7.95C71.8629 7.95 71.6996 7.91667 71.5463 7.85C71.3996 7.78333 71.2696 7.69333 71.1563 7.58C71.0429 7.46 70.9529 7.32667 70.8863 7.18C70.8196 7.02667 70.7863 6.86333 70.7863 6.69C70.7863 6.51667 70.8196 6.35333 70.8863 6.2C70.9529 6.04 71.0429 5.90333 71.1563 5.79C71.2696 5.67 71.3996 5.57667 71.5463 5.51C71.6996 5.44333 71.8629 5.41 72.0363 5.41C72.2096 5.41 72.3729 5.44333 72.5263 5.51C72.6863 5.57667 72.8229 5.67 72.9363 5.79C73.0563 5.90333 73.1496 6.04 73.2163 6.2C73.2896 6.35333 73.3263 6.51667 73.3263 6.69ZM77.7109 5.27V20H75.9309V5.27H77.7109Z" fill="#344054"/>
<path d="M22 6C22 4.9 21.1 4 20 4H4C2.9 4 2 4.9 2 6V18C2 19.1 2.9 20 4 20H20C21.1 20 22 19.1 22 18V6ZM20 6L12 11L4 6H20ZM20 18H4V8L12 13L20 8V18Z" fill="#344054"/>
</svg>
