<svg width="107" height="24" viewBox="0 0 107 24" fill="none" xmlns="http://www.w3.org/2000/svg">
<path d="M38.77 15.05C38.77 15.85 38.67 16.5667 38.47 17.2C38.2767 17.8333 37.9867 18.37 37.6 18.81C37.22 19.2433 36.75 19.5767 36.19 19.81C35.63 20.0433 34.9867 20.16 34.26 20.16C33.6 20.16 32.9267 20.0667 32.24 19.88C32.2533 19.6867 32.27 19.4967 32.29 19.31C32.31 19.1167 32.3267 18.9267 32.34 18.74C32.3533 18.6267 32.3933 18.5367 32.46 18.47C32.5333 18.3967 32.6433 18.36 32.79 18.36C32.91 18.36 33.0667 18.39 33.26 18.45C33.46 18.51 33.7267 18.54 34.06 18.54C34.5 18.54 34.8933 18.4733 35.24 18.34C35.5867 18.2067 35.8767 18 36.11 17.72C36.3433 17.44 36.52 17.0833 36.64 16.65C36.7667 16.21 36.83 15.69 36.83 15.09V5.67H38.77V15.05ZM45.7855 9.71C46.5255 9.71 47.1921 9.83333 47.7855 10.08C48.3788 10.3267 48.8855 10.6767 49.3055 11.13C49.7255 11.5833 50.0455 12.1333 50.2655 12.78C50.4921 13.42 50.6055 14.1367 50.6055 14.93C50.6055 15.73 50.4921 16.45 50.2655 17.09C50.0455 17.73 49.7255 18.2767 49.3055 18.73C48.8855 19.1833 48.3788 19.5333 47.7855 19.78C47.1921 20.02 46.5255 20.14 45.7855 20.14C45.0388 20.14 44.3655 20.02 43.7655 19.78C43.1721 19.5333 42.6655 19.1833 42.2455 18.73C41.8255 18.2767 41.5021 17.73 41.2755 17.09C41.0555 16.45 40.9455 15.73 40.9455 14.93C40.9455 14.1367 41.0555 13.42 41.2755 12.78C41.5021 12.1333 41.8255 11.5833 42.2455 11.13C42.6655 10.6767 43.1721 10.3267 43.7655 10.08C44.3655 9.83333 45.0388 9.71 45.7855 9.71ZM45.7855 18.75C46.7855 18.75 47.5321 18.4167 48.0255 17.75C48.5188 17.0767 48.7655 16.14 48.7655 14.94C48.7655 13.7333 48.5188 12.7933 48.0255 12.12C47.5321 11.4467 46.7855 11.11 45.7855 11.11C45.2788 11.11 44.8355 11.1967 44.4555 11.37C44.0821 11.5433 43.7688 11.7933 43.5155 12.12C43.2688 12.4467 43.0821 12.85 42.9555 13.33C42.8355 13.8033 42.7755 14.34 42.7755 14.94C42.7755 16.14 43.0221 17.0767 43.5155 17.75C44.0155 18.4167 44.7721 18.75 45.7855 18.75ZM54.6531 17.56C54.9798 18 55.3365 18.31 55.7231 18.49C56.1165 18.67 56.5465 18.76 57.0131 18.76C57.9665 18.76 58.6965 18.4233 59.2031 17.75C59.7098 17.0767 59.9631 16.0733 59.9631 14.74C59.9631 13.5 59.7365 12.59 59.2831 12.01C58.8365 11.4233 58.1965 11.13 57.3631 11.13C56.7831 11.13 56.2765 11.2633 55.8431 11.53C55.4165 11.7967 55.0198 12.1733 54.6531 12.66V17.56ZM54.6531 11.33C55.0798 10.8367 55.5598 10.4433 56.0931 10.15C56.6331 9.85667 57.2531 9.71 57.9531 9.71C58.5465 9.71 59.0798 9.82333 59.5531 10.05C60.0331 10.2767 60.4398 10.6067 60.7731 11.04C61.1065 11.4667 61.3598 11.9867 61.5331 12.6C61.7131 13.2133 61.8031 13.9033 61.8031 14.67C61.8031 15.49 61.7031 16.2367 61.5031 16.91C61.3031 17.5833 61.0131 18.16 60.6331 18.64C60.2598 19.1133 59.8031 19.4833 59.2631 19.75C58.7231 20.01 58.1165 20.14 57.4431 20.14C56.7765 20.14 56.2131 20.0167 55.7531 19.77C55.2998 19.5167 54.9031 19.16 54.5631 18.7L54.4731 19.62C54.4198 19.8733 54.2665 20 54.0131 20H52.8631V5.27H54.6531V11.33ZM78.6763 7.3H74.0363V20H72.1063V7.3H67.4563V5.67H78.6763V7.3ZM82.2041 9.87V20H80.4241V9.87H82.2041ZM82.5841 6.69C82.5841 6.86333 82.5474 7.02667 82.4741 7.18C82.4074 7.32667 82.3141 7.46 82.1941 7.58C82.0807 7.69333 81.9441 7.78333 81.7841 7.85C81.6307 7.91667 81.4674 7.95 81.2941 7.95C81.1207 7.95 80.9574 7.91667 80.8041 7.85C80.6574 7.78333 80.5274 7.69333 80.4141 7.58C80.3007 7.46 80.2107 7.32667 80.1441 7.18C80.0774 7.02667 80.0441 6.86333 80.0441 6.69C80.0441 6.51667 80.0774 6.35333 80.1441 6.2C80.2107 6.04 80.3007 5.90333 80.4141 5.79C80.5274 5.67 80.6574 5.57667 80.8041 5.51C80.9574 5.44333 81.1207 5.41 81.2941 5.41C81.4674 5.41 81.6307 5.44333 81.7841 5.51C81.9441 5.57667 82.0807 5.67 82.1941 5.79C82.3141 5.90333 82.4074 6.04 82.4741 6.2C82.5474 6.35333 82.5841 6.51667 82.5841 6.69ZM88.2388 20.16C87.4388 20.16 86.8221 19.9367 86.3888 19.49C85.9621 19.0433 85.7488 18.4 85.7488 17.56V11.36H84.5288C84.4221 11.36 84.3321 11.33 84.2588 11.27C84.1854 11.2033 84.1488 11.1033 84.1488 10.97V10.26L85.8088 10.05L86.2188 6.92C86.2388 6.82 86.2821 6.74 86.3488 6.68C86.4221 6.61333 86.5154 6.58 86.6288 6.58H87.5288V10.07H90.4588V11.36H87.5288V17.44C87.5288 17.8667 87.6321 18.1833 87.8388 18.39C88.0454 18.5967 88.3121 18.7 88.6388 18.7C88.8254 18.7 88.9854 18.6767 89.1188 18.63C89.2588 18.5767 89.3788 18.52 89.4788 18.46C89.5788 18.4 89.6621 18.3467 89.7288 18.3C89.8021 18.2467 89.8654 18.22 89.9188 18.22C90.0121 18.22 90.0954 18.2767 90.1688 18.39L90.6888 19.24C90.3821 19.5267 90.0121 19.7533 89.5788 19.92C89.1454 20.08 88.6988 20.16 88.2388 20.16ZM94.1367 5.27V20H92.3567V5.27H94.1367ZM103.803 13.83C103.803 13.4167 103.743 13.04 103.623 12.7C103.51 12.3533 103.34 12.0567 103.113 11.81C102.893 11.5567 102.623 11.3633 102.303 11.23C101.983 11.09 101.62 11.02 101.213 11.02C100.36 11.02 99.6833 11.27 99.1833 11.77C98.6899 12.2633 98.3833 12.95 98.2633 13.83H103.803ZM105.243 18.58C105.023 18.8467 104.76 19.08 104.453 19.28C104.147 19.4733 103.817 19.6333 103.463 19.76C103.117 19.8867 102.757 19.98 102.383 20.04C102.01 20.1067 101.64 20.14 101.273 20.14C100.573 20.14 99.9266 20.0233 99.3333 19.79C98.7466 19.55 98.2366 19.2033 97.8033 18.75C97.3766 18.29 97.0433 17.7233 96.8033 17.05C96.5633 16.3767 96.4433 15.6033 96.4433 14.73C96.4433 14.0233 96.5499 13.3633 96.7633 12.75C96.9833 12.1367 97.2966 11.6067 97.7033 11.16C98.1099 10.7067 98.6066 10.3533 99.1933 10.1C99.7799 9.84 100.44 9.71 101.173 9.71C101.78 9.71 102.34 9.81333 102.853 10.02C103.373 10.22 103.82 10.5133 104.193 10.9C104.573 11.28 104.87 11.7533 105.083 12.32C105.297 12.88 105.403 13.52 105.403 14.24C105.403 14.52 105.373 14.7067 105.313 14.8C105.253 14.8933 105.14 14.94 104.973 14.94H98.2033C98.2233 15.58 98.3099 16.1367 98.4633 16.61C98.6233 17.0833 98.8433 17.48 99.1233 17.8C99.4033 18.1133 99.7366 18.35 100.123 18.51C100.51 18.6633 100.943 18.74 101.423 18.74C101.87 18.74 102.253 18.69 102.573 18.59C102.9 18.4833 103.18 18.37 103.413 18.25C103.647 18.13 103.84 18.02 103.993 17.92C104.153 17.8133 104.29 17.76 104.403 17.76C104.55 17.76 104.663 17.8167 104.743 17.93L105.243 18.58Z" fill="#344054"/>
<path d="M14.9999 11.0002V12.9998M17.0001 11.0002H6.99976M15.9998 6.99984H8.00008V3.99984C8.00008 3.73467 8.10542 3.48035 8.29292 3.29285C8.48043 3.10534 8.73474 3 8.99992 3H14.9999C15.2651 3 15.5194 3.10534 15.7069 3.29285C15.8944 3.48035 15.9998 3.73467 15.9998 3.99984V6.99984Z" stroke="#344054" stroke-width="2" stroke-linecap="round" stroke-linejoin="round"/>
<path d="M21 20.0001V8.00008C21 7.73486 20.8947 7.48049 20.7072 7.29291C20.5197 7.10533 20.2654 6.99988 20.0002 6.99976H3.99984C3.44784 6.99976 3 7.4476 3 8.00008V20.0001C3 20.5521 3.44784 20.9999 3.99984 20.9999H20.0002C20.5522 20.9999 21 20.5521 21 20.0001Z" stroke="#344054" stroke-width="2" stroke-linecap="round" stroke-linejoin="round"/>
</svg>
