<svg width="139" height="24" viewBox="0 0 139 24" fill="none" xmlns="http://www.w3.org/2000/svg">
<path d="M41.96 18.37V20H33.83V5.67H35.76V18.37H41.96ZM49.7408 13.83C49.7408 13.4167 49.6808 13.04 49.5608 12.7C49.4474 12.3533 49.2774 12.0567 49.0508 11.81C48.8308 11.5567 48.5608 11.3633 48.2408 11.23C47.9208 11.09 47.5574 11.02 47.1508 11.02C46.2974 11.02 45.6208 11.27 45.1208 11.77C44.6274 12.2633 44.3208 12.95 44.2008 13.83H49.7408ZM51.1808 18.58C50.9608 18.8467 50.6974 19.08 50.3908 19.28C50.0841 19.4733 49.7541 19.6333 49.4008 19.76C49.0541 19.8867 48.6941 19.98 48.3208 20.04C47.9474 20.1067 47.5774 20.14 47.2108 20.14C46.5108 20.14 45.8641 20.0233 45.2708 19.79C44.6841 19.55 44.1741 19.2033 43.7408 18.75C43.3141 18.29 42.9808 17.7233 42.7408 17.05C42.5008 16.3767 42.3808 15.6033 42.3808 14.73C42.3808 14.0233 42.4874 13.3633 42.7008 12.75C42.9208 12.1367 43.2341 11.6067 43.6408 11.16C44.0474 10.7067 44.5441 10.3533 45.1308 10.1C45.7174 9.84 46.3774 9.71 47.1108 9.71C47.7174 9.71 48.2774 9.81333 48.7908 10.02C49.3108 10.22 49.7574 10.5133 50.1308 10.9C50.5108 11.28 50.8074 11.7533 51.0208 12.32C51.2341 12.88 51.3408 13.52 51.3408 14.24C51.3408 14.52 51.3108 14.7067 51.2508 14.8C51.1908 14.8933 51.0774 14.94 50.9108 14.94H44.1408C44.1608 15.58 44.2474 16.1367 44.4008 16.61C44.5608 17.0833 44.7808 17.48 45.0608 17.8C45.3408 18.1133 45.6741 18.35 46.0608 18.51C46.4474 18.6633 46.8808 18.74 47.3608 18.74C47.8074 18.74 48.1908 18.69 48.5108 18.59C48.8374 18.4833 49.1174 18.37 49.3508 18.25C49.5841 18.13 49.7774 18.02 49.9308 17.92C50.0908 17.8133 50.2274 17.76 50.3408 17.76C50.4874 17.76 50.6008 17.8167 50.6808 17.93L51.1808 18.58ZM59.0172 15.44C58.1972 15.4667 57.4972 15.5333 56.9172 15.64C56.3439 15.74 55.8739 15.8733 55.5072 16.04C55.1472 16.2067 54.8839 16.4033 54.7172 16.63C54.5572 16.8567 54.4772 17.11 54.4772 17.39C54.4772 17.6567 54.5205 17.8867 54.6072 18.08C54.6939 18.2733 54.8105 18.4333 54.9572 18.56C55.1105 18.68 55.2872 18.77 55.4872 18.83C55.6939 18.8833 55.9139 18.91 56.1472 18.91C56.4605 18.91 56.7472 18.88 57.0072 18.82C57.2672 18.7533 57.5105 18.66 57.7372 18.54C57.9705 18.42 58.1905 18.2767 58.3972 18.11C58.6105 17.9433 58.8172 17.7533 59.0172 17.54V15.44ZM53.2672 11.3C53.8272 10.76 54.4305 10.3567 55.0772 10.09C55.7239 9.82333 56.4405 9.69 57.2272 9.69C57.7939 9.69 58.2972 9.78333 58.7372 9.97C59.1772 10.1567 59.5472 10.4167 59.8472 10.75C60.1472 11.0833 60.3739 11.4867 60.5272 11.96C60.6805 12.4333 60.7572 12.9533 60.7572 13.52V20H59.9672C59.7939 20 59.6605 19.9733 59.5672 19.92C59.4739 19.86 59.4005 19.7467 59.3472 19.58L59.1472 18.62C58.8805 18.8667 58.6205 19.0867 58.3672 19.28C58.1139 19.4667 57.8472 19.6267 57.5672 19.76C57.2872 19.8867 56.9872 19.9833 56.6672 20.05C56.3539 20.1233 56.0039 20.16 55.6172 20.16C55.2239 20.16 54.8539 20.1067 54.5072 20C54.1605 19.8867 53.8572 19.72 53.5972 19.5C53.3439 19.28 53.1405 19.0033 52.9872 18.67C52.8405 18.33 52.7672 17.93 52.7672 17.47C52.7672 17.07 52.8772 16.6867 53.0972 16.32C53.3172 15.9467 53.6739 15.6167 54.1672 15.33C54.6605 15.0433 55.3039 14.81 56.0972 14.63C56.8905 14.4433 57.8639 14.3367 59.0172 14.31V13.52C59.0172 12.7333 58.8472 12.14 58.5072 11.74C58.1672 11.3333 57.6705 11.13 57.0172 11.13C56.5772 11.13 56.2072 11.1867 55.9072 11.3C55.6139 11.4067 55.3572 11.53 55.1372 11.67C54.9239 11.8033 54.7372 11.9267 54.5772 12.04C54.4239 12.1467 54.2705 12.2 54.1172 12.2C53.9972 12.2 53.8939 12.17 53.8072 12.11C53.7205 12.0433 53.6472 11.9633 53.5872 11.87L53.2672 11.3ZM70.0686 12.28C69.7353 11.8333 69.3753 11.5233 68.9886 11.35C68.6019 11.17 68.1686 11.08 67.6886 11.08C66.7486 11.08 66.0253 11.4167 65.5186 12.09C65.0119 12.7633 64.7586 13.7233 64.7586 14.97C64.7586 15.63 64.8153 16.1967 64.9286 16.67C65.0419 17.1367 65.2086 17.5233 65.4286 17.83C65.6486 18.13 65.9186 18.35 66.2386 18.49C66.5586 18.63 66.9219 18.7 67.3286 18.7C67.9153 18.7 68.4253 18.5667 68.8586 18.3C69.2986 18.0333 69.7019 17.6567 70.0686 17.17V12.28ZM71.8486 5.27V20H70.7886C70.5353 20 70.3753 19.8767 70.3086 19.63L70.1486 18.4C69.7153 18.92 69.2219 19.34 68.6686 19.66C68.1153 19.98 67.4753 20.14 66.7486 20.14C66.1686 20.14 65.6419 20.03 65.1686 19.81C64.6953 19.5833 64.2919 19.2533 63.9586 18.82C63.6253 18.3867 63.3686 17.8467 63.1886 17.2C63.0086 16.5533 62.9186 15.81 62.9186 14.97C62.9186 14.2233 63.0186 13.53 63.2186 12.89C63.4186 12.2433 63.7053 11.6833 64.0786 11.21C64.4519 10.7367 64.9086 10.3667 65.4486 10.1C65.9953 9.82667 66.6086 9.69 67.2886 9.69C67.9086 9.69 68.4386 9.79667 68.8786 10.01C69.3253 10.2167 69.7219 10.5067 70.0686 10.88V5.27H71.8486ZM87.5272 7.91C87.4672 8.01 87.4005 8.08667 87.3272 8.14C87.2605 8.18667 87.1772 8.21 87.0772 8.21C86.9639 8.21 86.8305 8.15333 86.6772 8.04C86.5239 7.92667 86.3305 7.80333 86.0972 7.67C85.8705 7.53 85.5939 7.40333 85.2672 7.29C84.9472 7.17667 84.5572 7.12 84.0972 7.12C83.6639 7.12 83.2805 7.18 82.9472 7.3C82.6205 7.41333 82.3439 7.57 82.1172 7.77C81.8972 7.97 81.7305 8.20667 81.6172 8.48C81.5039 8.74667 81.4472 9.03667 81.4472 9.35C81.4472 9.75 81.5439 10.0833 81.7372 10.35C81.9372 10.61 82.1972 10.8333 82.5172 11.02C82.8439 11.2067 83.2105 11.37 83.6172 11.51C84.0305 11.6433 84.4505 11.7833 84.8772 11.93C85.3105 12.0767 85.7305 12.2433 86.1372 12.43C86.5505 12.61 86.9172 12.84 87.2372 13.12C87.5639 13.4 87.8239 13.7433 88.0172 14.15C88.2172 14.5567 88.3172 15.0567 88.3172 15.65C88.3172 16.2767 88.2105 16.8667 87.9972 17.42C87.7839 17.9667 87.4705 18.4433 87.0572 18.85C86.6505 19.2567 86.1472 19.5767 85.5472 19.81C84.9539 20.0433 84.2772 20.16 83.5172 20.16C82.5839 20.16 81.7372 19.9933 80.9772 19.66C80.2172 19.32 79.5672 18.8633 79.0272 18.29L79.5872 17.37C79.6405 17.2967 79.7039 17.2367 79.7772 17.19C79.8572 17.1367 79.9439 17.11 80.0372 17.11C80.1239 17.11 80.2205 17.1467 80.3272 17.22C80.4405 17.2867 80.5672 17.3733 80.7072 17.48C80.8472 17.5867 81.0072 17.7033 81.1872 17.83C81.3672 17.9567 81.5705 18.0733 81.7972 18.18C82.0305 18.2867 82.2939 18.3767 82.5872 18.45C82.8805 18.5167 83.2105 18.55 83.5772 18.55C84.0372 18.55 84.4472 18.4867 84.8072 18.36C85.1672 18.2333 85.4705 18.0567 85.7172 17.83C85.9705 17.5967 86.1639 17.32 86.2972 17C86.4305 16.68 86.4972 16.3233 86.4972 15.93C86.4972 15.4967 86.3972 15.1433 86.1972 14.87C86.0039 14.59 85.7472 14.3567 85.4272 14.17C85.1072 13.9833 84.7405 13.8267 84.3272 13.7C83.9139 13.5667 83.4939 13.4333 83.0672 13.3C82.6405 13.16 82.2205 13 81.8072 12.82C81.3939 12.64 81.0272 12.4067 80.7072 12.12C80.3872 11.8333 80.1272 11.4767 79.9272 11.05C79.7339 10.6167 79.6372 10.0833 79.6372 9.45C79.6372 8.94333 79.7339 8.45333 79.9272 7.98C80.1272 7.50667 80.4139 7.08667 80.7872 6.72C81.1672 6.35333 81.6305 6.06 82.1772 5.84C82.7305 5.62 83.3639 5.51 84.0772 5.51C84.8772 5.51 85.6039 5.63667 86.2572 5.89C86.9172 6.14333 87.4972 6.51 87.9972 6.99L87.5272 7.91ZM94.848 9.71C95.588 9.71 96.2546 9.83333 96.848 10.08C97.4413 10.3267 97.948 10.6767 98.368 11.13C98.788 11.5833 99.108 12.1333 99.328 12.78C99.5546 13.42 99.668 14.1367 99.668 14.93C99.668 15.73 99.5546 16.45 99.328 17.09C99.108 17.73 98.788 18.2767 98.368 18.73C97.948 19.1833 97.4413 19.5333 96.848 19.78C96.2546 20.02 95.588 20.14 94.848 20.14C94.1013 20.14 93.428 20.02 92.828 19.78C92.2346 19.5333 91.728 19.1833 91.308 18.73C90.888 18.2767 90.5646 17.73 90.338 17.09C90.118 16.45 90.008 15.73 90.008 14.93C90.008 14.1367 90.118 13.42 90.338 12.78C90.5646 12.1333 90.888 11.5833 91.308 11.13C91.728 10.6767 92.2346 10.3267 92.828 10.08C93.428 9.83333 94.1013 9.71 94.848 9.71ZM94.848 18.75C95.848 18.75 96.5946 18.4167 97.088 17.75C97.5813 17.0767 97.828 16.14 97.828 14.94C97.828 13.7333 97.5813 12.7933 97.088 12.12C96.5946 11.4467 95.848 11.11 94.848 11.11C94.3413 11.11 93.898 11.1967 93.518 11.37C93.1446 11.5433 92.8313 11.7933 92.578 12.12C92.3313 12.4467 92.1446 12.85 92.018 13.33C91.898 13.8033 91.838 14.34 91.838 14.94C91.838 16.14 92.0846 17.0767 92.578 17.75C93.078 18.4167 93.8346 18.75 94.848 18.75ZM110.256 9.87V20H109.196C108.942 20 108.782 19.8767 108.716 19.63L108.576 18.54C108.136 19.0267 107.642 19.42 107.096 19.72C106.549 20.0133 105.922 20.16 105.216 20.16C104.662 20.16 104.172 20.07 103.746 19.89C103.326 19.7033 102.972 19.4433 102.686 19.11C102.399 18.7767 102.182 18.3733 102.036 17.9C101.896 17.4267 101.826 16.9033 101.826 16.33V9.87H103.606V16.33C103.606 17.0967 103.779 17.69 104.126 18.11C104.479 18.53 105.016 18.74 105.736 18.74C106.262 18.74 106.752 18.6167 107.206 18.37C107.666 18.1167 108.089 17.77 108.476 17.33V9.87H110.256ZM114.768 11.9C115.088 11.2067 115.481 10.6667 115.948 10.28C116.415 9.88667 116.985 9.69 117.658 9.69C117.871 9.69 118.075 9.71333 118.268 9.76C118.468 9.80667 118.645 9.88 118.798 9.98L118.668 11.31C118.628 11.4767 118.528 11.56 118.368 11.56C118.275 11.56 118.138 11.54 117.958 11.5C117.778 11.46 117.575 11.44 117.348 11.44C117.028 11.44 116.741 11.4867 116.488 11.58C116.241 11.6733 116.018 11.8133 115.818 12C115.625 12.18 115.448 12.4067 115.288 12.68C115.135 12.9467 114.995 13.2533 114.868 13.6V20H113.078V9.87H114.098C114.291 9.87 114.425 9.90667 114.498 9.98C114.571 10.0533 114.621 10.18 114.648 10.36L114.768 11.9ZM127.003 11.67C126.95 11.7433 126.896 11.8 126.843 11.84C126.79 11.88 126.716 11.9 126.623 11.9C126.523 11.9 126.413 11.86 126.293 11.78C126.173 11.6933 126.023 11.6 125.843 11.5C125.67 11.4 125.453 11.31 125.193 11.23C124.94 11.1433 124.626 11.1 124.253 11.1C123.753 11.1 123.313 11.19 122.933 11.37C122.553 11.5433 122.233 11.7967 121.973 12.13C121.72 12.4633 121.526 12.8667 121.393 13.34C121.266 13.8133 121.203 14.3433 121.203 14.93C121.203 15.5433 121.273 16.09 121.413 16.57C121.553 17.0433 121.75 17.4433 122.003 17.77C122.263 18.09 122.573 18.3367 122.933 18.51C123.3 18.6767 123.71 18.76 124.163 18.76C124.596 18.76 124.953 18.71 125.233 18.61C125.513 18.5033 125.743 18.3867 125.923 18.26C126.11 18.1333 126.263 18.02 126.383 17.92C126.51 17.8133 126.633 17.76 126.753 17.76C126.9 17.76 127.013 17.8167 127.093 17.93L127.593 18.58C127.373 18.8533 127.123 19.0867 126.843 19.28C126.563 19.4733 126.26 19.6367 125.933 19.77C125.613 19.8967 125.276 19.99 124.923 20.05C124.57 20.11 124.21 20.14 123.843 20.14C123.21 20.14 122.62 20.0233 122.073 19.79C121.533 19.5567 121.063 19.22 120.663 18.78C120.263 18.3333 119.95 17.7867 119.723 17.14C119.496 16.4933 119.383 15.7567 119.383 14.93C119.383 14.1767 119.486 13.48 119.693 12.84C119.906 12.2 120.213 11.65 120.613 11.19C121.02 10.7233 121.516 10.36 122.103 10.1C122.696 9.84 123.376 9.71 124.143 9.71C124.856 9.71 125.483 9.82667 126.023 10.06C126.57 10.2867 127.053 10.61 127.473 11.03L127.003 11.67ZM136.108 13.83C136.108 13.4167 136.048 13.04 135.928 12.7C135.815 12.3533 135.645 12.0567 135.418 11.81C135.198 11.5567 134.928 11.3633 134.608 11.23C134.288 11.09 133.925 11.02 133.518 11.02C132.665 11.02 131.988 11.27 131.488 11.77C130.995 12.2633 130.688 12.95 130.568 13.83H136.108ZM137.548 18.58C137.328 18.8467 137.065 19.08 136.758 19.28C136.451 19.4733 136.121 19.6333 135.768 19.76C135.421 19.8867 135.061 19.98 134.688 20.04C134.315 20.1067 133.945 20.14 133.578 20.14C132.878 20.14 132.231 20.0233 131.638 19.79C131.051 19.55 130.541 19.2033 130.108 18.75C129.681 18.29 129.348 17.7233 129.108 17.05C128.868 16.3767 128.748 15.6033 128.748 14.73C128.748 14.0233 128.855 13.3633 129.068 12.75C129.288 12.1367 129.601 11.6067 130.008 11.16C130.415 10.7067 130.911 10.3533 131.498 10.1C132.085 9.84 132.745 9.71 133.478 9.71C134.085 9.71 134.645 9.81333 135.158 10.02C135.678 10.22 136.125 10.5133 136.498 10.9C136.878 11.28 137.175 11.7533 137.388 12.32C137.601 12.88 137.708 13.52 137.708 14.24C137.708 14.52 137.678 14.7067 137.618 14.8C137.558 14.8933 137.445 14.94 137.278 14.94H130.508C130.528 15.58 130.615 16.1367 130.768 16.61C130.928 17.0833 131.148 17.48 131.428 17.8C131.708 18.1133 132.041 18.35 132.428 18.51C132.815 18.6633 133.248 18.74 133.728 18.74C134.175 18.74 134.558 18.69 134.878 18.59C135.205 18.4833 135.485 18.37 135.718 18.25C135.951 18.13 136.145 18.02 136.298 17.92C136.458 17.8133 136.595 17.76 136.708 17.76C136.855 17.76 136.968 17.8167 137.048 17.93L137.548 18.58Z" fill="#344054"/>
<path d="M20 6H12L10 4H4C2.9 4 2.01 4.9 2.01 6L2 18C2 19.1 2.9 20 4 20H20C21.1 20 22 19.1 22 18V8C22 6.9 21.1 6 20 6ZM20 18H4V6H9.17L11.17 8H20V18ZM18 12H6V10H18V12ZM14 16H6V14H14V16Z" fill="#344054"/>
</svg>
