<svg width="84" height="24" viewBox="0 0 84 24" fill="none" xmlns="http://www.w3.org/2000/svg">
<path d="M45.44 5.67V20H44.47C44.3167 20 44.1867 19.9733 44.08 19.92C43.98 19.8667 43.88 19.7767 43.78 19.65L35.49 8.85C35.5033 9.01667 35.5133 9.18 35.52 9.34C35.5267 9.5 35.53 9.65 35.53 9.79V20H33.83V5.67H34.83C34.9167 5.67 34.99 5.67667 35.05 5.69C35.11 5.69667 35.1633 5.71333 35.21 5.74C35.2567 5.76 35.3033 5.79333 35.35 5.84C35.3967 5.88 35.4467 5.93333 35.5 6L43.79 16.79C43.7767 16.6167 43.7633 16.45 43.75 16.29C43.7433 16.1233 43.74 15.9667 43.74 15.82V5.67H45.44ZM53.8805 15.44C53.0605 15.4667 52.3605 15.5333 51.7805 15.64C51.2071 15.74 50.7371 15.8733 50.3705 16.04C50.0105 16.2067 49.7471 16.4033 49.5805 16.63C49.4205 16.8567 49.3405 17.11 49.3405 17.39C49.3405 17.6567 49.3838 17.8867 49.4705 18.08C49.5571 18.2733 49.6738 18.4333 49.8205 18.56C49.9738 18.68 50.1505 18.77 50.3505 18.83C50.5571 18.8833 50.7771 18.91 51.0105 18.91C51.3238 18.91 51.6105 18.88 51.8705 18.82C52.1305 18.7533 52.3738 18.66 52.6005 18.54C52.8338 18.42 53.0538 18.2767 53.2605 18.11C53.4738 17.9433 53.6805 17.7533 53.8805 17.54V15.44ZM48.1305 11.3C48.6905 10.76 49.2938 10.3567 49.9405 10.09C50.5871 9.82333 51.3038 9.69 52.0905 9.69C52.6571 9.69 53.1605 9.78333 53.6005 9.97C54.0405 10.1567 54.4105 10.4167 54.7105 10.75C55.0105 11.0833 55.2371 11.4867 55.3905 11.96C55.5438 12.4333 55.6205 12.9533 55.6205 13.52V20H54.8305C54.6571 20 54.5238 19.9733 54.4305 19.92C54.3371 19.86 54.2638 19.7467 54.2105 19.58L54.0105 18.62C53.7438 18.8667 53.4838 19.0867 53.2305 19.28C52.9771 19.4667 52.7105 19.6267 52.4305 19.76C52.1505 19.8867 51.8505 19.9833 51.5305 20.05C51.2171 20.1233 50.8671 20.16 50.4805 20.16C50.0871 20.16 49.7171 20.1067 49.3705 20C49.0238 19.8867 48.7205 19.72 48.4605 19.5C48.2071 19.28 48.0038 19.0033 47.8505 18.67C47.7038 18.33 47.6305 17.93 47.6305 17.47C47.6305 17.07 47.7405 16.6867 47.9605 16.32C48.1805 15.9467 48.5371 15.6167 49.0305 15.33C49.5238 15.0433 50.1671 14.81 50.9605 14.63C51.7538 14.4433 52.7271 14.3367 53.8805 14.31V13.52C53.8805 12.7333 53.7105 12.14 53.3705 11.74C53.0305 11.3333 52.5338 11.13 51.8805 11.13C51.4405 11.13 51.0705 11.1867 50.7705 11.3C50.4771 11.4067 50.2205 11.53 50.0005 11.67C49.7871 11.8033 49.6005 11.9267 49.4405 12.04C49.2871 12.1467 49.1338 12.2 48.9805 12.2C48.8605 12.2 48.7571 12.17 48.6705 12.11C48.5838 12.0433 48.5105 11.9633 48.4505 11.87L48.1305 11.3ZM58.3319 20V9.87H59.4019C59.6552 9.87 59.8119 9.99333 59.8719 10.24L60.0019 11.28C60.3752 10.82 60.7952 10.4433 61.2619 10.15C61.7285 9.85667 62.2685 9.71 62.8819 9.71C63.5619 9.71 64.1119 9.9 64.5319 10.28C64.9585 10.66 65.2652 11.1733 65.4519 11.82C65.5985 11.4533 65.7852 11.1367 66.0119 10.87C66.2452 10.6033 66.5052 10.3833 66.7919 10.21C67.0785 10.0367 67.3819 9.91 67.7019 9.83C68.0285 9.75 68.3585 9.71 68.6919 9.71C69.2252 9.71 69.6985 9.79667 70.1119 9.97C70.5319 10.1367 70.8852 10.3833 71.1719 10.71C71.4652 11.0367 71.6885 11.44 71.8419 11.92C71.9952 12.3933 72.0719 12.9367 72.0719 13.55V20H70.2819V13.55C70.2819 12.7567 70.1085 12.1567 69.7619 11.75C69.4152 11.3367 68.9152 11.13 68.2619 11.13C67.9685 11.13 67.6885 11.1833 67.4219 11.29C67.1619 11.39 66.9319 11.54 66.7319 11.74C66.5319 11.94 66.3719 12.1933 66.2519 12.5C66.1385 12.8 66.0819 13.15 66.0819 13.55V20H64.2919V13.55C64.2919 12.7367 64.1285 12.13 63.8019 11.73C63.4752 11.33 62.9985 11.13 62.3719 11.13C61.9319 11.13 61.5252 11.25 61.1519 11.49C60.7785 11.7233 60.4352 12.0433 60.1219 12.45V20H58.3319ZM81.5572 13.83C81.5572 13.4167 81.4972 13.04 81.3772 12.7C81.2639 12.3533 81.0939 12.0567 80.8672 11.81C80.6472 11.5567 80.3772 11.3633 80.0572 11.23C79.7372 11.09 79.3739 11.02 78.9672 11.02C78.1139 11.02 77.4372 11.27 76.9372 11.77C76.4439 12.2633 76.1372 12.95 76.0172 13.83H81.5572ZM82.9972 18.58C82.7772 18.8467 82.5139 19.08 82.2072 19.28C81.9005 19.4733 81.5705 19.6333 81.2172 19.76C80.8705 19.8867 80.5105 19.98 80.1372 20.04C79.7639 20.1067 79.3939 20.14 79.0272 20.14C78.3272 20.14 77.6805 20.0233 77.0872 19.79C76.5005 19.55 75.9905 19.2033 75.5572 18.75C75.1305 18.29 74.7972 17.7233 74.5572 17.05C74.3172 16.3767 74.1972 15.6033 74.1972 14.73C74.1972 14.0233 74.3039 13.3633 74.5172 12.75C74.7372 12.1367 75.0505 11.6067 75.4572 11.16C75.8639 10.7067 76.3605 10.3533 76.9472 10.1C77.5339 9.84 78.1939 9.71 78.9272 9.71C79.5339 9.71 80.0939 9.81333 80.6072 10.02C81.1272 10.22 81.5739 10.5133 81.9472 10.9C82.3272 11.28 82.6239 11.7533 82.8372 12.32C83.0505 12.88 83.1572 13.52 83.1572 14.24C83.1572 14.52 83.1272 14.7067 83.0672 14.8C83.0072 14.8933 82.8939 14.94 82.7272 14.94H75.9572C75.9772 15.58 76.0639 16.1367 76.2172 16.61C76.3772 17.0833 76.5972 17.48 76.8772 17.8C77.1572 18.1133 77.4905 18.35 77.8772 18.51C78.2639 18.6633 78.6972 18.74 79.1772 18.74C79.6239 18.74 80.0072 18.69 80.3272 18.59C80.6539 18.4833 80.9339 18.37 81.1672 18.25C81.4005 18.13 81.5939 18.02 81.7472 17.92C81.9072 17.8133 82.0439 17.76 82.1572 17.76C82.3039 17.76 82.4172 17.8167 82.4972 17.93L82.9972 18.58Z" fill="#344054"/>
<path d="M5 21C4.45 21 3.97917 20.8042 3.5875 20.4125C3.19583 20.0208 3 19.55 3 19V5C3 4.45 3.19583 3.97917 3.5875 3.5875C3.97917 3.19583 4.45 3 5 3H19C19.55 3 20.0208 3.19583 20.4125 3.5875C20.8042 3.97917 21 4.45 21 5V19C21 19.55 20.8042 20.0208 20.4125 20.4125C20.0208 20.8042 19.55 21 19 21H5ZM5 19H19V5H5V19Z" fill="#CACACA"/>
</svg>
