<svg width="87" height="24" viewBox="0 0 87 24" fill="none" xmlns="http://www.w3.org/2000/svg">
<path d="M41.16 7.91C41.1 8.01 41.0333 8.08667 40.96 8.14C40.8933 8.18667 40.81 8.21 40.71 8.21C40.5967 8.21 40.4633 8.15333 40.31 8.04C40.1567 7.92667 39.9633 7.80333 39.73 7.67C39.5033 7.53 39.2267 7.40333 38.9 7.29C38.58 7.17667 38.19 7.12 37.73 7.12C37.2967 7.12 36.9133 7.18 36.58 7.3C36.2533 7.41333 35.9767 7.57 35.75 7.77C35.53 7.97 35.3633 8.20667 35.25 8.48C35.1367 8.74667 35.08 9.03667 35.08 9.35C35.08 9.75 35.1767 10.0833 35.37 10.35C35.57 10.61 35.83 10.8333 36.15 11.02C36.4767 11.2067 36.8433 11.37 37.25 11.51C37.6633 11.6433 38.0833 11.7833 38.51 11.93C38.9433 12.0767 39.3633 12.2433 39.77 12.43C40.1833 12.61 40.55 12.84 40.87 13.12C41.1967 13.4 41.4567 13.7433 41.65 14.15C41.85 14.5567 41.95 15.0567 41.95 15.65C41.95 16.2767 41.8433 16.8667 41.63 17.42C41.4167 17.9667 41.1033 18.4433 40.69 18.85C40.2833 19.2567 39.78 19.5767 39.18 19.81C38.5867 20.0433 37.91 20.16 37.15 20.16C36.2167 20.16 35.37 19.9933 34.61 19.66C33.85 19.32 33.2 18.8633 32.66 18.29L33.22 17.37C33.2733 17.2967 33.3367 17.2367 33.41 17.19C33.49 17.1367 33.5767 17.11 33.67 17.11C33.7567 17.11 33.8533 17.1467 33.96 17.22C34.0733 17.2867 34.2 17.3733 34.34 17.48C34.48 17.5867 34.64 17.7033 34.82 17.83C35 17.9567 35.2033 18.0733 35.43 18.18C35.6633 18.2867 35.9267 18.3767 36.22 18.45C36.5133 18.5167 36.8433 18.55 37.21 18.55C37.67 18.55 38.08 18.4867 38.44 18.36C38.8 18.2333 39.1033 18.0567 39.35 17.83C39.6033 17.5967 39.7967 17.32 39.93 17C40.0633 16.68 40.13 16.3233 40.13 15.93C40.13 15.4967 40.03 15.1433 39.83 14.87C39.6367 14.59 39.38 14.3567 39.06 14.17C38.74 13.9833 38.3733 13.8267 37.96 13.7C37.5467 13.5667 37.1267 13.4333 36.7 13.3C36.2733 13.16 35.8533 13 35.44 12.82C35.0267 12.64 34.66 12.4067 34.34 12.12C34.02 11.8333 33.76 11.4767 33.56 11.05C33.3667 10.6167 33.27 10.0833 33.27 9.45C33.27 8.94333 33.3667 8.45333 33.56 7.98C33.76 7.50667 34.0467 7.08667 34.42 6.72C34.8 6.35333 35.2633 6.06 35.81 5.84C36.3633 5.62 36.9967 5.51 37.71 5.51C38.51 5.51 39.2367 5.63667 39.89 5.89C40.55 6.14333 41.13 6.51 41.63 6.99L41.16 7.91ZM46.9302 20.16C46.1302 20.16 45.5135 19.9367 45.0802 19.49C44.6535 19.0433 44.4402 18.4 44.4402 17.56V11.36H43.2202C43.1135 11.36 43.0235 11.33 42.9502 11.27C42.8768 11.2033 42.8402 11.1033 42.8402 10.97V10.26L44.5002 10.05L44.9102 6.92C44.9302 6.82 44.9735 6.74 45.0402 6.68C45.1135 6.61333 45.2068 6.58 45.3202 6.58H46.2202V10.07H49.1502V11.36H46.2202V17.44C46.2202 17.8667 46.3235 18.1833 46.5302 18.39C46.7368 18.5967 47.0035 18.7 47.3302 18.7C47.5168 18.7 47.6768 18.6767 47.8102 18.63C47.9502 18.5767 48.0702 18.52 48.1702 18.46C48.2702 18.4 48.3535 18.3467 48.4202 18.3C48.4935 18.2467 48.5568 18.22 48.6102 18.22C48.7035 18.22 48.7868 18.2767 48.8602 18.39L49.3802 19.24C49.0735 19.5267 48.7035 19.7533 48.2702 19.92C47.8368 20.08 47.3902 20.16 46.9302 20.16ZM56.4781 15.44C55.6581 15.4667 54.9581 15.5333 54.3781 15.64C53.8048 15.74 53.3348 15.8733 52.9681 16.04C52.6081 16.2067 52.3448 16.4033 52.1781 16.63C52.0181 16.8567 51.9381 17.11 51.9381 17.39C51.9381 17.6567 51.9815 17.8867 52.0681 18.08C52.1548 18.2733 52.2715 18.4333 52.4181 18.56C52.5715 18.68 52.7481 18.77 52.9481 18.83C53.1548 18.8833 53.3748 18.91 53.6081 18.91C53.9215 18.91 54.2081 18.88 54.4681 18.82C54.7281 18.7533 54.9715 18.66 55.1981 18.54C55.4315 18.42 55.6515 18.2767 55.8581 18.11C56.0715 17.9433 56.2781 17.7533 56.4781 17.54V15.44ZM50.7281 11.3C51.2881 10.76 51.8915 10.3567 52.5381 10.09C53.1848 9.82333 53.9015 9.69 54.6881 9.69C55.2548 9.69 55.7581 9.78333 56.1981 9.97C56.6381 10.1567 57.0081 10.4167 57.3081 10.75C57.6081 11.0833 57.8348 11.4867 57.9881 11.96C58.1415 12.4333 58.2181 12.9533 58.2181 13.52V20H57.4281C57.2548 20 57.1215 19.9733 57.0281 19.92C56.9348 19.86 56.8615 19.7467 56.8081 19.58L56.6081 18.62C56.3415 18.8667 56.0815 19.0867 55.8281 19.28C55.5748 19.4667 55.3081 19.6267 55.0281 19.76C54.7481 19.8867 54.4481 19.9833 54.1281 20.05C53.8148 20.1233 53.4648 20.16 53.0781 20.16C52.6848 20.16 52.3148 20.1067 51.9681 20C51.6215 19.8867 51.3181 19.72 51.0581 19.5C50.8048 19.28 50.6015 19.0033 50.4481 18.67C50.3015 18.33 50.2281 17.93 50.2281 17.47C50.2281 17.07 50.3381 16.6867 50.5581 16.32C50.7781 15.9467 51.1348 15.6167 51.6281 15.33C52.1215 15.0433 52.7648 14.81 53.5581 14.63C54.3515 14.4433 55.3248 14.3367 56.4781 14.31V13.52C56.4781 12.7333 56.3081 12.14 55.9681 11.74C55.6281 11.3333 55.1315 11.13 54.4781 11.13C54.0381 11.13 53.6681 11.1867 53.3681 11.3C53.0748 11.4067 52.8181 11.53 52.5981 11.67C52.3848 11.8033 52.1981 11.9267 52.0381 12.04C51.8848 12.1467 51.7315 12.2 51.5781 12.2C51.4581 12.2 51.3548 12.17 51.2681 12.11C51.1815 12.0433 51.1081 11.9633 51.0481 11.87L50.7281 11.3ZM63.9028 20.16C63.1028 20.16 62.4861 19.9367 62.0528 19.49C61.6261 19.0433 61.4128 18.4 61.4128 17.56V11.36H60.1928C60.0861 11.36 59.9961 11.33 59.9228 11.27C59.8495 11.2033 59.8128 11.1033 59.8128 10.97V10.26L61.4728 10.05L61.8828 6.92C61.9028 6.82 61.9461 6.74 62.0128 6.68C62.0861 6.61333 62.1795 6.58 62.2928 6.58H63.1928V10.07H66.1228V11.36H63.1928V17.44C63.1928 17.8667 63.2961 18.1833 63.5028 18.39C63.7095 18.5967 63.9761 18.7 64.3028 18.7C64.4895 18.7 64.6495 18.6767 64.7828 18.63C64.9228 18.5767 65.0428 18.52 65.1428 18.46C65.2428 18.4 65.3261 18.3467 65.3928 18.3C65.4661 18.2467 65.5295 18.22 65.5828 18.22C65.6761 18.22 65.7595 18.2767 65.8328 18.39L66.3528 19.24C66.0461 19.5267 65.6761 19.7533 65.2428 19.92C64.8095 20.08 64.3628 20.16 63.9028 20.16ZM76.2908 9.87V20H75.2308C74.9774 20 74.8174 19.8767 74.7508 19.63L74.6108 18.54C74.1708 19.0267 73.6774 19.42 73.1308 19.72C72.5841 20.0133 71.9574 20.16 71.2508 20.16C70.6974 20.16 70.2074 20.07 69.7808 19.89C69.3608 19.7033 69.0074 19.4433 68.7208 19.11C68.4341 18.7767 68.2174 18.3733 68.0708 17.9C67.9308 17.4267 67.8608 16.9033 67.8608 16.33V9.87H69.6408V16.33C69.6408 17.0967 69.8141 17.69 70.1608 18.11C70.5141 18.53 71.0508 18.74 71.7708 18.74C72.2974 18.74 72.7874 18.6167 73.2408 18.37C73.7008 18.1167 74.1241 17.77 74.5108 17.33V9.87H76.2908ZM85.0131 11.54C84.9331 11.6867 84.8098 11.76 84.6431 11.76C84.5431 11.76 84.4298 11.7233 84.3031 11.65C84.1765 11.5767 84.0198 11.4967 83.8331 11.41C83.6531 11.3167 83.4365 11.2333 83.1831 11.16C82.9298 11.08 82.6298 11.04 82.2831 11.04C81.9831 11.04 81.7131 11.08 81.4731 11.16C81.2331 11.2333 81.0265 11.3367 80.8531 11.47C80.6865 11.6033 80.5565 11.76 80.4631 11.94C80.3765 12.1133 80.3331 12.3033 80.3331 12.51C80.3331 12.77 80.4065 12.9867 80.5531 13.16C80.7065 13.3333 80.9065 13.4833 81.1531 13.61C81.3998 13.7367 81.6798 13.85 81.9931 13.95C82.3065 14.0433 82.6265 14.1467 82.9531 14.26C83.2865 14.3667 83.6098 14.4867 83.9231 14.62C84.2365 14.7533 84.5165 14.92 84.7631 15.12C85.0098 15.32 85.2065 15.5667 85.3531 15.86C85.5065 16.1467 85.5831 16.4933 85.5831 16.9C85.5831 17.3667 85.4998 17.8 85.3331 18.2C85.1665 18.5933 84.9198 18.9367 84.5931 19.23C84.2665 19.5167 83.8665 19.7433 83.3931 19.91C82.9198 20.0767 82.3731 20.16 81.7531 20.16C81.0465 20.16 80.4065 20.0467 79.8331 19.82C79.2598 19.5867 78.7731 19.29 78.3731 18.93L78.7931 18.25C78.8465 18.1633 78.9098 18.0967 78.9831 18.05C79.0565 18.0033 79.1498 17.98 79.2631 17.98C79.3831 17.98 79.5098 18.0267 79.6431 18.12C79.7765 18.2133 79.9365 18.3167 80.1231 18.43C80.3165 18.5433 80.5498 18.6467 80.8231 18.74C81.0965 18.8333 81.4365 18.88 81.8431 18.88C82.1898 18.88 82.4931 18.8367 82.7531 18.75C83.0131 18.6567 83.2298 18.5333 83.4031 18.38C83.5765 18.2267 83.7031 18.05 83.7831 17.85C83.8698 17.65 83.9131 17.4367 83.9131 17.21C83.9131 16.93 83.8365 16.7 83.6831 16.52C83.5365 16.3333 83.3398 16.1767 83.0931 16.05C82.8465 15.9167 82.5631 15.8033 82.2431 15.71C81.9298 15.61 81.6065 15.5067 81.2731 15.4C80.9465 15.2933 80.6231 15.1733 80.3031 15.04C79.9898 14.9 79.7098 14.7267 79.4631 14.52C79.2165 14.3133 79.0165 14.06 78.8631 13.76C78.7165 13.4533 78.6431 13.0833 78.6431 12.65C78.6431 12.2633 78.7231 11.8933 78.8831 11.54C79.0431 11.18 79.2765 10.8667 79.5831 10.6C79.8898 10.3267 80.2665 10.11 80.7131 9.95C81.1598 9.79 81.6698 9.71 82.2431 9.71C82.9098 9.71 83.5065 9.81667 84.0331 10.03C84.5665 10.2367 85.0265 10.5233 85.4131 10.89L85.0131 11.54Z" fill="#344054"/>
<path d="M21.8239 9.00093L21.8436 9.05708L21.9169 9.29965L21.9782 9.51736L22.0044 9.61679L22.0472 9.79679C22.6031 12.3051 22.1974 14.9306 20.9102 17.1541C19.6259 19.3844 17.55 21.0503 15.0945 21.8212L14.9213 21.8726L14.7088 21.9275L14.4015 22.0004C14.2929 22.0251 14.1805 22.0272 14.0711 22.0065C13.9617 21.9858 13.8578 21.9427 13.7658 21.8801C13.6738 21.8174 13.5956 21.7365 13.5363 21.6423C13.477 21.5481 13.4377 21.4427 13.4209 21.3326C13.3865 21.1068 13.4381 20.8762 13.5655 20.6866C13.693 20.497 13.887 20.3621 14.1092 20.3088L14.3565 20.2466C14.5108 20.2061 14.6435 20.1671 14.7546 20.1296C16.7266 19.4639 18.3876 18.1009 19.4256 16.2969C20.4698 14.4943 20.8191 12.3722 20.4079 10.3299L20.3783 10.1958L20.3389 10.0394L20.2896 9.86022L20.2305 9.65879C20.1643 9.43906 20.183 9.20247 20.283 8.99591C20.383 8.78936 20.557 8.62794 20.7705 8.54365C20.8697 8.50446 20.9756 8.4852 21.0823 8.48698C21.1889 8.48875 21.2941 8.51153 21.392 8.55399C21.4898 8.59646 21.5783 8.65779 21.6524 8.73448C21.7265 8.81117 21.7848 8.90171 21.8239 9.00093ZM3.16478 8.53722C3.18335 8.54293 3.20163 8.54922 3.21963 8.55608C3.43262 8.63908 3.60664 8.79908 3.70721 9.00435C3.80779 9.20963 3.82757 9.44519 3.76263 9.66436C3.68549 9.92408 3.62978 10.1402 3.59549 10.3128C3.18609 12.3534 3.53585 14.4733 4.57906 16.2742C5.61803 18.0798 7.28105 19.4435 9.25521 20.1086L9.38635 20.1502L9.46092 20.1716L9.62806 20.2171L9.92549 20.2904C10.1489 20.3429 10.3445 20.4775 10.4733 20.6675C10.6022 20.8574 10.6549 21.0889 10.6211 21.3159C10.5893 21.5288 10.4743 21.7204 10.3014 21.8485C10.1284 21.9766 9.91166 22.0308 9.69878 21.9991L9.63963 21.9884L9.39278 21.9305L9.17421 21.8748L8.98306 21.8212L8.89735 21.7955C6.44689 21.0225 4.37585 19.3579 3.09406 17.1309C1.80454 14.9036 1.3996 12.2728 1.95963 9.76079L1.99263 9.62365L2.03549 9.46293L2.11863 9.17793L2.15121 9.07079C2.18268 8.96917 2.23387 8.87474 2.30185 8.79291C2.36983 8.71107 2.45326 8.64343 2.54738 8.59384C2.6415 8.54425 2.74447 8.51369 2.8504 8.5039C2.95634 8.49411 3.06316 8.50572 3.16478 8.53722ZM12.0216 5.14293C15.8089 5.14293 18.8788 8.21279 18.8788 12.0001C18.8788 15.7874 15.8089 18.8572 12.0216 18.8572C8.23435 18.8572 5.16449 15.7874 5.16449 12.0001C5.16449 8.21279 8.23478 5.14293 12.0216 5.14293ZM12.0216 6.85722C9.18149 6.85722 6.87878 9.15993 6.87878 12.0001C6.87878 14.8402 9.18149 17.1429 12.0216 17.1429C14.8622 17.1429 17.1645 14.8402 17.1645 12.0001C17.1645 9.15993 14.8622 6.85722 12.0216 6.85722ZM12.0216 1.71436C14.5954 1.71121 17.0763 2.67589 18.9718 4.41693L19.0742 4.51422L19.1921 4.63165L19.3249 4.76965L19.4732 4.92779C19.5489 5.00942 19.6069 5.10577 19.6436 5.21082C19.6804 5.31587 19.6951 5.42736 19.6869 5.53835C19.6786 5.64934 19.6476 5.75744 19.5957 5.8559C19.5438 5.95437 19.4722 6.04109 19.3853 6.11065C19.207 6.25357 18.9814 6.32426 18.7533 6.30871C18.5253 6.29315 18.3114 6.19248 18.1541 6.02665C18.0609 5.92808 17.9745 5.83993 17.8948 5.76222L17.7448 5.61908L17.6762 5.55779C16.1137 4.18285 14.1029 3.42573 12.0216 3.42865C9.9384 3.42563 7.92588 4.18406 6.36278 5.56122L6.31392 5.60493L6.20549 5.70779L6.08249 5.82993L5.87035 6.05065C5.54463 6.39736 5.00721 6.43636 4.63478 6.14065C4.55125 6.07434 4.48162 5.99223 4.42984 5.899C4.37807 5.80577 4.34517 5.70325 4.33303 5.5973C4.32089 5.49136 4.32975 5.38405 4.35909 5.28153C4.38844 5.17901 4.4377 5.08327 4.50406 4.99979L4.54263 4.95436L4.71621 4.76965L4.87392 4.60765C4.94878 4.53251 5.01792 4.46608 5.08135 4.40836C6.97556 2.67284 9.45215 1.71145 12.0212 1.71436" fill="#344054"/>
</svg>
