<svg width="68" height="24" viewBox="0 0 68 24" fill="none" xmlns="http://www.w3.org/2000/svg">
<path d="M39.36 18.46C39.9533 18.46 40.4833 18.36 40.95 18.16C41.4167 17.96 41.81 17.68 42.13 17.32C42.4567 16.96 42.7033 16.53 42.87 16.03C43.0433 15.53 43.13 14.98 43.13 14.38V5.67H45.06V14.38C45.06 15.2067 44.9267 15.9733 44.66 16.68C44.4 17.3867 44.0233 18 43.53 18.52C43.0433 19.0333 42.4467 19.4367 41.74 19.73C41.0333 20.0233 40.24 20.17 39.36 20.17C38.48 20.17 37.6867 20.0233 36.98 19.73C36.2733 19.4367 35.6733 19.0333 35.18 18.52C34.6867 18 34.3067 17.3867 34.04 16.68C33.78 15.9733 33.65 15.2067 33.65 14.38V5.67H35.58V14.37C35.58 14.97 35.6633 15.52 35.83 16.02C36.0033 16.52 36.25 16.95 36.57 17.31C36.8967 17.67 37.2933 17.9533 37.76 18.16C38.2333 18.36 38.7667 18.46 39.36 18.46ZM49.5141 11.9C49.8341 11.2067 50.2274 10.6667 50.6941 10.28C51.1607 9.88667 51.7307 9.69 52.4041 9.69C52.6174 9.69 52.8207 9.71333 53.0141 9.76C53.2141 9.80667 53.3907 9.88 53.5441 9.98L53.4141 11.31C53.3741 11.4767 53.2741 11.56 53.1141 11.56C53.0207 11.56 52.8841 11.54 52.7041 11.5C52.5241 11.46 52.3207 11.44 52.0941 11.44C51.7741 11.44 51.4874 11.4867 51.2341 11.58C50.9874 11.6733 50.7641 11.8133 50.5641 12C50.3707 12.18 50.1941 12.4067 50.0341 12.68C49.8807 12.9467 49.7407 13.2533 49.6141 13.6V20H47.8241V9.87H48.8441C49.0374 9.87 49.1707 9.90667 49.2441 9.98C49.3174 10.0533 49.3674 10.18 49.3941 10.36L49.5141 11.9ZM56.9492 5.27V20H55.1692V5.27H56.9492ZM65.7358 11.54C65.6558 11.6867 65.5324 11.76 65.3658 11.76C65.2658 11.76 65.1524 11.7233 65.0258 11.65C64.8991 11.5767 64.7424 11.4967 64.5558 11.41C64.3758 11.3167 64.1591 11.2333 63.9058 11.16C63.6524 11.08 63.3524 11.04 63.0058 11.04C62.7058 11.04 62.4358 11.08 62.1958 11.16C61.9558 11.2333 61.7491 11.3367 61.5758 11.47C61.4091 11.6033 61.2791 11.76 61.1858 11.94C61.0991 12.1133 61.0558 12.3033 61.0558 12.51C61.0558 12.77 61.1291 12.9867 61.2758 13.16C61.4291 13.3333 61.6291 13.4833 61.8758 13.61C62.1224 13.7367 62.4024 13.85 62.7158 13.95C63.0291 14.0433 63.3491 14.1467 63.6758 14.26C64.0091 14.3667 64.3324 14.4867 64.6458 14.62C64.9591 14.7533 65.2391 14.92 65.4858 15.12C65.7324 15.32 65.9291 15.5667 66.0758 15.86C66.2291 16.1467 66.3058 16.4933 66.3058 16.9C66.3058 17.3667 66.2224 17.8 66.0558 18.2C65.8891 18.5933 65.6424 18.9367 65.3158 19.23C64.9891 19.5167 64.5891 19.7433 64.1158 19.91C63.6424 20.0767 63.0958 20.16 62.4758 20.16C61.7691 20.16 61.1291 20.0467 60.5558 19.82C59.9824 19.5867 59.4958 19.29 59.0958 18.93L59.5158 18.25C59.5691 18.1633 59.6324 18.0967 59.7058 18.05C59.7791 18.0033 59.8724 17.98 59.9858 17.98C60.1058 17.98 60.2324 18.0267 60.3658 18.12C60.4991 18.2133 60.6591 18.3167 60.8458 18.43C61.0391 18.5433 61.2724 18.6467 61.5458 18.74C61.8191 18.8333 62.1591 18.88 62.5658 18.88C62.9124 18.88 63.2158 18.8367 63.4758 18.75C63.7358 18.6567 63.9524 18.5333 64.1258 18.38C64.2991 18.2267 64.4258 18.05 64.5058 17.85C64.5924 17.65 64.6358 17.4367 64.6358 17.21C64.6358 16.93 64.5591 16.7 64.4058 16.52C64.2591 16.3333 64.0624 16.1767 63.8158 16.05C63.5691 15.9167 63.2858 15.8033 62.9658 15.71C62.6524 15.61 62.3291 15.5067 61.9958 15.4C61.6691 15.2933 61.3458 15.1733 61.0258 15.04C60.7124 14.9 60.4324 14.7267 60.1858 14.52C59.9391 14.3133 59.7391 14.06 59.5858 13.76C59.4391 13.4533 59.3658 13.0833 59.3658 12.65C59.3658 12.2633 59.4458 11.8933 59.6058 11.54C59.7658 11.18 59.9991 10.8667 60.3058 10.6C60.6124 10.3267 60.9891 10.11 61.4358 9.95C61.8824 9.79 62.3924 9.71 62.9658 9.71C63.6324 9.71 64.2291 9.81667 64.7558 10.03C65.2891 10.2367 65.7491 10.5233 66.1358 10.89L65.7358 11.54Z" fill="#344054"/>
<path d="M11.5275 7.10597L14.9985 3.63447C16.338 2.29547 18.768 2.55347 20.107 3.89297C21.446 5.23247 21.7045 7.66197 20.3655 9.00147L15.224 14.143C13.8845 15.482 11.455 15.224 10.1155 13.8845" stroke="#344054" stroke-linecap="round" stroke-linejoin="round"/>
<path d="M12.4725 16.8944L9.00154 20.3654C7.66204 21.7044 5.23204 21.4464 3.89304 20.1069C2.55404 18.7674 2.29554 16.3379 3.63454 14.9984L8.77604 9.85688C10.1155 8.51788 12.5455 8.77588 13.8845 10.1154" stroke="#344054" stroke-linecap="round" stroke-linejoin="round"/>
</svg>
